<?xml version="1.0" encoding="UTF-8" standalone="no"?>
<!DOCTYPE svg PUBLIC "-//W3C//DTD SVG 1.1//EN" "http://www.w3.org/Graphics/SVG/1.1/DTD/svg11.dtd">
<svg width="100%" height="100%" viewBox="0 0 100 113" version="1.1" xmlns="http://www.w3.org/2000/svg" xmlns:xlink="http://www.w3.org/1999/xlink" xml:space="preserve" xmlns:serif="http://www.serif.com/" style="fill-rule:evenodd;clip-rule:evenodd;stroke-linejoin:round;stroke-miterlimit:2;">
    <g transform="matrix(1,0,0,1,-1900.3,-5276.13)">
        <g transform="matrix(2,0,0,2,0,0)">
            <g id="accurate">
                <g transform="matrix(1,0,0,1,992.821,2659.76)">
                    <path d="M0,13.027C-0.01,12.012 -0.729,11.237 -1.641,11.256C-2.52,11.274 -3.201,12.068 -3.191,13.068C-3.186,14.063 -2.488,14.84 -1.604,14.843C-0.697,14.845 0.01,14.046 0,13.027M1.607,-13.665C2.004,-14.084 2.426,-14.528 2.836,-14.96C1.609,-16.324 0.396,-17.673 -0.775,-18.974C-1.166,-18.559 -1.588,-18.111 -1.979,-17.695C-0.766,-16.334 0.441,-14.976 1.607,-13.665M-5.178,-12.254C-4.525,-11.525 -3.848,-10.766 -3.195,-10.04C-2.283,-11.061 -1.338,-12.12 -0.477,-13.083C-1.125,-13.812 -1.807,-14.581 -2.477,-15.334C-3.35,-14.336 -4.277,-13.28 -5.178,-12.254M-18.355,22.017C-18.254,22.054 -18.223,22.075 -18.191,22.075C-15.246,22.078 -12.301,22.082 -9.357,22.075C-9.242,22.075 -9.082,22.02 -9.023,21.926C-8.697,21.413 -8.393,20.879 -8.078,20.349C-8.107,20.331 -8.133,20.299 -8.158,20.299C-10.891,20.3 -13.625,20.269 -16.355,20.325C-17.297,20.345 -17.93,21.022 -18.355,22.017M-12.48,7.69C-15.311,4.51 -18.129,1.344 -20.895,-1.768C-21.287,-1.348 -21.703,-0.898 -22.076,-0.498C-19.266,2.657 -16.447,5.822 -13.641,8.972C-13.27,8.56 -12.863,8.111 -12.48,7.69M-5.992,-0.47C-5.982,-0.455 -5.963,-0.405 -5.928,-0.369C-3.389,2.328 -1.623,5.555 -0.66,9.333C-0.617,9.506 -0.436,9.68 -0.281,9.764C2.014,11.002 2.287,14.285 0.242,16C0.098,16.122 -0.02,16.36 -0.051,16.564C-0.203,17.521 -0.34,18.482 -0.441,19.446C-0.463,19.652 -0.383,19.947 -0.256,20.087C0.383,20.769 0.898,21.542 1.215,22.465C1.377,22.941 1.48,23.444 1.617,23.965C4.939,15.282 3.107,3.857 -3.744,-2.992C-4.482,-2.163 -5.219,-1.337 -5.992,-0.47M-12.924,4.397C-9.563,0.623 -6.205,-3.15 -2.879,-6.886C-4.57,-8.784 -6.314,-10.743 -7.998,-12.634C-11.338,-8.883 -14.699,-5.108 -18.041,-1.356C-16.338,0.56 -14.594,2.518 -12.924,4.397M-23.281,32.898L5.623,32.898C5.889,30.725 4.709,29.237 2.789,29.311C0.436,29.401 -1.924,29.333 -4.279,29.331C-4.451,29.331 -4.625,29.315 -4.791,29.305L-4.791,27.493L-0.025,27.493C-0.025,26.415 0.018,25.405 -0.035,24.403C-0.135,22.44 -1.461,20.801 -3.217,20.382C-4.895,19.985 -6.674,20.92 -7.512,22.598C-8.283,24.143 -7.971,25.808 -8.045,27.517L-6.453,27.517L-6.453,29.332L-7.061,29.332C-11.592,29.332 -16.125,29.368 -20.656,29.313C-22.207,29.294 -23.645,30.562 -23.281,32.898M-0.719,-21.693C-0.607,-21.541 -0.506,-21.376 -0.381,-21.238C1.465,-19.182 3.314,-17.129 5.148,-15.091C3.91,-13.736 2.721,-12.438 1.512,-11.115C1.359,-11.278 1.104,-11.553 0.877,-11.795C-0.086,-10.714 -1.031,-9.654 -2.047,-8.513C-1.537,-7.998 -0.994,-7.449 -0.422,-6.871C-1.207,-6.026 -1.924,-5.254 -2.613,-4.509C5.408,5.039 6.953,15.65 2.072,27.473C2.547,27.502 3.064,27.53 3.578,27.563C5.557,27.691 7.195,29.635 7.236,31.842C7.256,32.791 7.238,33.742 7.238,34.72L-24.953,34.72C-24.902,32.791 -25.277,30.795 -23.98,29.121C-23.078,27.951 -21.92,27.504 -20.582,27.506C-17.145,27.508 -13.709,27.507 -10.271,27.507L-9.652,27.507L-9.652,23.922L-20.035,23.922C-20.352,22.012 -19.604,20.113 -18.178,19.143C-17.453,18.651 -16.662,18.467 -15.836,18.466C-11.957,18.459 -8.08,18.447 -4.203,18.478C-3.479,18.483 -2.756,18.679 -1.963,18.798C-1.871,18.144 -1.771,17.431 -1.672,16.727C-3.889,15.972 -4.73,14.995 -4.816,13.127C-4.889,11.551 -4.043,10.306 -2.309,9.486C-3.215,6.09 -4.852,3.217 -7.127,0.856C-8.631,2.546 -10.119,4.216 -11.633,5.917C-11.168,6.401 -10.633,6.958 -10.137,7.47C-11.391,8.872 -12.563,10.184 -13.707,11.464C-17.219,7.521 -20.803,3.498 -24.357,-0.495C-23.23,-1.761 -22.064,-3.07 -20.871,-4.412C-20.398,-3.849 -19.896,-3.252 -19.4,-2.66C-15.586,-6.944 -11.844,-11.148 -8.039,-15.416C-7.482,-14.74 -6.986,-14.136 -6.506,-13.555C-5.52,-14.68 -4.582,-15.749 -3.57,-16.903C-3.795,-17.083 -4.088,-17.316 -4.402,-17.567C-3.141,-19.019 -1.979,-20.356 -0.816,-21.693L-0.719,-21.693Z" style="fill:white;"/>
                </g>
                <g transform="matrix(1,0,0,1,956.929,2646.64)">
                    <path d="M0,39.687L4.166,39.687C3.428,38.9 2.76,38.189 2.08,37.467C1.379,38.215 0.721,38.917 0,39.687M2.08,2.215C2.783,1.463 3.443,0.755 4.166,-0.021L-0.014,-0.021C0.715,0.759 1.373,1.46 2.08,2.215M2.078,4.683C1.117,5.83 0.221,6.899 -0.74,8.047L4.908,8.047C3.936,6.89 3.035,5.82 2.078,4.683M2.082,34.988C3.043,33.846 3.939,32.778 4.904,31.631L-0.748,31.631C0.227,32.787 1.121,33.849 2.082,34.988M7.195,43.332C6.738,42.736 6.369,42.224 5.965,41.749C5.861,41.625 5.652,41.559 5.49,41.558C3.219,41.546 0.945,41.548 -1.326,41.555C-1.465,41.555 -1.652,41.572 -1.732,41.669C-2.16,42.181 -2.561,42.722 -3.033,43.332L7.195,43.332ZM-3.055,28.009C-2.742,28.546 -2.488,29.031 -2.186,29.475C-2.08,29.631 -1.857,29.773 -1.687,29.775C0.828,29.794 3.346,29.789 5.863,29.784C5.982,29.784 6.16,29.772 6.213,29.688C6.553,29.163 6.865,28.616 7.225,28.009L-3.055,28.009ZM7.168,-3.616L-3.014,-3.616C-2.557,-3.029 -2.182,-2.525 -1.779,-2.048C-1.684,-1.934 -1.5,-1.864 -1.355,-1.863C0.932,-1.852 3.215,-1.853 5.502,-1.861C5.637,-1.861 5.818,-1.896 5.9,-1.994C6.318,-2.497 6.713,-3.027 7.168,-3.616M9.287,18.905C9.244,18.47 9.18,18.072 9.178,17.675C9.178,17.215 9.002,17.111 8.611,17.112C4.262,17.128 -0.09,17.122 -4.441,17.123C-4.6,17.123 -4.76,17.139 -4.961,17.15C-5.016,17.75 -5.066,18.317 -5.119,18.905L9.287,18.905ZM7.25,11.718C6.908,11.134 6.65,10.646 6.348,10.201C6.24,10.045 6.016,9.908 5.844,9.906C3.326,9.888 0.809,9.892 -1.707,9.899C-1.838,9.901 -2.023,9.943 -2.088,10.041C-2.418,10.554 -2.719,11.09 -3.094,11.727L3.643,11.727L3.643,13.502L3.064,13.502C0.891,13.502 -1.283,13.497 -3.457,13.509C-3.631,13.51 -3.906,13.562 -3.963,13.688C-4.182,14.188 -4.336,14.727 -4.531,15.302L8.689,15.302C8.531,14.825 8.371,14.39 8.248,13.941C8.148,13.581 7.961,13.48 7.633,13.492C6.871,13.521 6.109,13.502 5.34,13.502L5.34,11.718L7.25,11.718ZM-0.314,22.544L1.744,22.544C4.049,22.544 6.355,22.55 8.662,22.532C8.822,22.531 9.1,22.386 9.127,22.258C9.225,21.787 9.24,21.293 9.289,20.781L-5.119,20.781C-5.086,21.18 -5.027,21.542 -5.033,21.904C-5.043,22.479 -4.783,22.578 -4.332,22.555C-3.553,22.516 -2.771,22.544 -1.98,22.544L-1.98,24.373L-4.521,24.373C-4.436,24.651 -4.371,24.874 -4.303,25.094C-3.967,26.161 -3.965,26.161 -2.949,26.161L-2.213,26.161C1.074,26.161 4.361,26.163 7.648,26.153C7.818,26.153 8.084,26.083 8.139,25.955C8.355,25.469 8.504,24.945 8.701,24.361L-0.314,24.361L-0.314,22.544ZM3.145,36.131C3.436,36.43 3.623,36.605 3.791,36.8C5.254,38.478 6.762,40.115 8.158,41.86C9.135,43.08 9.875,44.504 10.072,46.187C10.135,46.712 10.131,47.247 10.16,47.825L8.621,47.825C8.504,47.065 8.389,46.316 8.273,45.565C8.223,45.233 8.049,45.145 7.758,45.146C3.979,45.157 0.199,45.157 -3.582,45.145C-3.898,45.144 -4.068,45.247 -4.121,45.602C-4.227,46.336 -4.346,47.069 -4.465,47.842L-5.941,47.842C-6.053,46.56 -5.873,45.358 -5.369,44.21C-4.537,42.318 -3.283,40.797 -1.969,39.332C-1.029,38.285 -0.068,37.266 0.893,36.224C0.023,35.176 -0.855,34.167 -1.684,33.106C-3.449,30.842 -4.971,28.395 -5.871,25.526C-7.416,20.61 -6.955,15.889 -4.734,11.352C-3.551,8.933 -1.98,6.846 -0.295,4.862C0.09,4.41 0.512,3.999 1.059,3.416C0.842,3.27 0.662,3.199 0.543,3.062C-0.953,1.365 -2.484,-0.294 -3.912,-2.06C-4.914,-3.303 -5.687,-4.747 -5.904,-6.463C-5.973,-7.003 -5.963,-7.558 -5.99,-8.154L-4.459,-8.154C-4.33,-7.267 -4.203,-6.379 -4.076,-5.481L-2.393,-5.481C0.963,-5.481 4.314,-5.49 7.67,-5.47C8.049,-5.468 8.248,-5.579 8.307,-6C8.402,-6.702 8.508,-7.402 8.617,-8.155L10.104,-8.155C10.223,-6.889 10.107,-5.64 9.516,-4.558C8.826,-3.299 8.082,-2.054 7.213,-0.95C6.109,0.45 4.857,1.702 3.668,3.016C3.541,3.157 3.404,3.287 3.252,3.442C4.033,4.377 4.807,5.266 5.543,6.189C7.455,8.584 9.104,11.171 10.059,14.242C11.578,19.13 11.098,23.814 8.902,28.315C7.602,30.981 5.842,33.248 3.945,35.392C3.719,35.651 3.443,35.859 3.145,36.131" style="fill:white;"/>
                </g>
            </g>
        </g>
    </g>
</svg>
