<?xml version="1.0" encoding="UTF-8" standalone="no"?>
<!DOCTYPE svg PUBLIC "-//W3C//DTD SVG 1.1//EN" "http://www.w3.org/Graphics/SVG/1.1/DTD/svg11.dtd">
<svg width="100%" height="100%" viewBox="0 0 130 135" version="1.1" xmlns="http://www.w3.org/2000/svg" xmlns:xlink="http://www.w3.org/1999/xlink" xml:space="preserve" xmlns:serif="http://www.serif.com/" style="fill-rule:evenodd;clip-rule:evenodd;stroke-linejoin:round;stroke-miterlimit:2;">
    <g transform="matrix(1,0,0,1,-2593.3,-5272.13)">
        <g transform="matrix(2,0,0,2,0,0)">
            <g id="affordable">
                <g transform="matrix(1,0,0,1,1307.91,2686.15)">
                    <path d="M0,2.637C0,-0.708 0.004,-4.053 -0.002,-7.399C-0.002,-8.596 -0.527,-9.129 -1.713,-9.134C-3.418,-9.143 -5.125,-9.143 -6.83,-9.134C-7.992,-9.129 -8.535,-8.572 -8.535,-7.384C-8.539,-0.694 -8.539,5.997 -8.535,12.688C-8.533,13.868 -7.988,14.416 -6.814,14.422C-5.152,14.429 -3.492,14.426 -1.83,14.422C-0.5,14.42 -0.002,13.926 0,12.607C0.002,9.284 0,5.96 0,2.637M2.729,8.791C3.268,8.695 3.697,8.621 4.125,8.541C6.92,8.022 9.701,7.432 12.572,7.575C16.701,7.782 20.832,7.961 24.961,8.163C27.498,8.288 30.025,8.388 32.527,7.762C35.561,7.003 38.193,5.53 40.568,3.521C43.625,0.937 46.725,-1.596 49.805,-4.153C50.861,-5.03 51.107,-6.182 50.471,-7.231C49.656,-8.568 48.104,-8.8 46.805,-7.754C43.771,-5.312 40.762,-2.844 37.717,-0.417C35.539,1.321 33.043,2.312 30.254,2.463C27.939,2.589 25.617,2.603 23.303,2.727C21.557,2.821 20.305,2.136 19.498,0.597C19.336,0.287 19.139,-0.003 18.971,-0.31C17.799,-2.454 18.934,-4.959 21.332,-5.446C23.602,-5.906 25.881,-6.323 28.156,-6.749C29.551,-7.009 30.418,-7.983 30.311,-9.196C30.203,-10.426 29.277,-11.185 27.859,-11.241C25.324,-11.341 22.787,-11.416 20.254,-11.574C16.652,-11.799 13.125,-11.579 9.795,-10.032C7.637,-9.03 5.502,-7.972 3.342,-6.969C2.885,-6.758 2.711,-6.517 2.715,-5.993C2.738,-1.311 2.729,3.371 2.729,8.052L2.729,8.791ZM-7.756,17.148C-7.832,17.109 -7.902,17.055 -7.982,17.033C-10.018,16.453 -11.229,14.985 -11.236,12.879C-11.264,6.051 -11.27,-0.776 -11.234,-7.604C-11.221,-10.136 -9.41,-11.843 -6.871,-11.863C-5.209,-11.876 -3.545,-11.846 -1.883,-11.871C-0.09,-11.898 1.299,-11.217 2.225,-9.657C2.258,-9.603 2.297,-9.552 2.344,-9.485C4.369,-10.447 6.35,-11.409 8.348,-12.338C11.643,-13.868 15.107,-14.511 18.738,-14.335C21.865,-14.183 24.992,-14.069 28.117,-13.957C30.713,-13.864 32.766,-12.003 32.977,-9.517C33.201,-6.882 31.518,-4.631 28.928,-4.126C26.654,-3.681 24.377,-3.255 22.102,-2.822C21.191,-2.65 21.062,-2.232 21.432,-1.373C21.941,-0.185 22.715,0.19 24,0.049C25.691,-0.137 27.406,-0.146 29.113,-0.155C31.949,-0.17 34.393,-1.136 36.566,-2.938C39.396,-5.283 42.264,-7.583 45.127,-9.886C47.051,-11.432 49.518,-11.53 51.383,-10.169C54.107,-8.182 54.229,-4.327 51.602,-2.124C48.283,0.659 44.939,3.414 41.6,6.175C39.416,7.98 36.965,9.285 34.254,10.119C31.387,11.003 28.455,11.08 25.486,10.924C20.92,10.683 16.352,10.495 11.781,10.31C9.199,10.205 6.707,10.865 4.189,11.297C3.736,11.374 3.287,11.465 2.729,11.57C2.729,11.917 2.73,12.28 2.729,12.641C2.717,14.939 1.586,16.425 -0.627,17.054C-0.687,17.071 -0.74,17.116 -0.797,17.148L-7.756,17.148Z" style="fill:white;"/>
                </g>
                <g transform="matrix(1,0,0,1,1339.81,2640.44)">
                    <path d="M0,28.38C8.291,28.397 15.025,21.663 15.023,13.354C15.023,5.073 8.34,-1.621 0.049,-1.647C-8.26,-1.673 -14.98,5.018 -15.006,13.341C-15.031,21.639 -8.322,28.363 0,28.38M1.443,-4.372C2.824,-4.068 4.246,-3.878 5.584,-3.441C13.189,-0.954 18.211,6.491 17.705,14.424C17.186,22.512 11.281,29.246 3.359,30.782C-6.799,32.752 -16.602,25.472 -17.621,15.204C-18.568,5.656 -11.98,-2.785 -2.475,-4.205C-2.131,-4.257 -1.789,-4.316 -1.445,-4.372L1.443,-4.372Z" style="fill:white;"/>
                </g>
                <g transform="matrix(1,0,0,1,1340.41,2656.8)">
                    <path d="M0,-4.465L-5.16,-4.465C-5.4,-4.465 -5.643,-4.455 -5.883,-4.47C-6.67,-4.521 -7.23,-5.063 -7.256,-5.789C-7.281,-6.532 -6.717,-7.15 -5.895,-7.18C-4.869,-7.219 -3.84,-7.194 -2.811,-7.196L-0.119,-7.196C-0.373,-8.179 -1.498,-9.012 -2.652,-9.051C-3.635,-9.085 -4.621,-9.059 -5.605,-9.068C-6.623,-9.078 -7.264,-9.618 -7.256,-10.448C-7.25,-11.275 -6.611,-11.796 -5.58,-11.797C-2.236,-11.799 1.111,-11.802 4.457,-11.796C5.617,-11.793 6.311,-10.949 5.961,-9.986C5.729,-9.349 5.229,-9.084 4.584,-9.073C3.799,-9.058 3.016,-9.069 2.188,-9.069C2.439,-8.436 2.67,-7.857 2.936,-7.195C3.408,-7.195 3.928,-7.202 4.445,-7.194C5.42,-7.179 6.051,-6.643 6.055,-5.836C6.061,-5.028 5.426,-4.478 4.463,-4.466C3.941,-4.46 3.42,-4.465 2.902,-4.465C2.064,-1.833 0.312,-0.34 -2.471,0.046C-1.328,1.131 -0.256,2.151 0.818,3.17C1.389,3.712 1.973,4.241 2.529,4.797C3.146,5.415 3.172,6.228 2.623,6.783C2.084,7.327 1.303,7.337 0.684,6.755C-1.801,4.418 -4.275,2.069 -6.752,-0.278C-7.203,-0.706 -7.385,-1.223 -7.158,-1.823C-6.92,-2.456 -6.404,-2.709 -5.766,-2.718C-4.738,-2.734 -3.709,-2.705 -2.682,-2.734C-1.52,-2.768 -0.664,-3.335 0,-4.465" style="fill:white;"/>
                </g>
            </g>
        </g>
    </g>
</svg>
