<svg xmlns="http://www.w3.org/2000/svg" viewBox="0 0 21.7 21.7"><defs><style>.cls-1{opacity:0.55;}.cls-2{fill:#5d5d5d;fill-rule:evenodd;}</style></defs><g id="Layer_2" data-name="Layer 2"><g id="Layer_1-2" data-name="Layer 1"><g class="cls-1"><path class="cls-2" d="M7.6,11.22V14.7c0,1.12,0,2.24,0,3.37a3.61,3.61,0,0,1-7.22.08c0-2.23,0-4.45,0-6.67v-.24C0,11.1,0,11,0,10.71V4a4,4,0,0,1,8-.19c0,2.32,0,4.64,0,7A.4.4,0,0,1,7.6,11.22Zm-.37-.74c0-2.26,0-4.5,0-6.73a3.2,3.2,0,0,0-3.13-3A3.25,3.25,0,0,0,.73,4c0,2.09,0,4.17,0,6.26,0,.07,0,.14,0,.22Zm-6.14.74v.12c0,2.26,0,4.53,0,6.8a2.73,2.73,0,0,0,.12.75,2.89,2.89,0,0,0,5.66-.79c0-2.23,0-4.46,0-6.69,0-.06,0-.13,0-.19Z"/><path class="cls-2" d="M8.82,2.88c-.09-.21-.18-.43-.28-.64A9.39,9.39,0,0,1,19,17.46,9.29,9.29,0,0,1,8.17,19.27c.1-.2.2-.4.3-.62a8.66,8.66,0,0,0,7,.28,8.45,8.45,0,0,0,4.06-3.26A8.69,8.69,0,0,0,8.82,2.88Z"/><path class="cls-2" d="M8.85,4.47c-.12-.21-.22-.41-.33-.6A7.94,7.94,0,0,1,18,16.4a7.89,7.89,0,0,1-9.84,1.21c.12-.19.24-.38.36-.59a7.21,7.21,0,0,0,6.15.66,7,7,0,0,0,3.63-2.78A7.24,7.24,0,0,0,8.85,4.47Z"/><path class="cls-2" d="M14.46,6.87v.72h-.71c-.12.31-.24.6-.39.94l.55.45-.58.54L12.88,9l-1,.39v.7h-.71V9.42l-1-.4-.44.53L9.26,9l.53-.45L9.4,7.6H8.7V6.88h.69c.14-.33.25-.62.39-1l-.53-.45L9.81,5l.45.48,1-.4V4.36h.72v.69l.94.39.44-.55.56.59-.51.43.39,1ZM12.61,6.7l-.51-.49L12.3,6,12,5.83c0,.12,0,.21,0,.3h-.7c0-.11,0-.19,0-.3L10.85,6l.18.21-.47.52-.25-.21-.14.36.3,0v.7l-.3,0,.15.35.23-.2.5.49-.2.24.35.14c0-.11,0-.21,0-.3h.71c0,.11,0,.19,0,.31l.35-.15-.18-.22.47-.52.24.21c.05-.13.1-.24.14-.36l-.3,0v-.7l.31,0c-.06-.13-.1-.24-.15-.36Z"/><path class="cls-2" d="M13.39,11.57v-.71h.7c.14-.33.26-.62.39-.95L14,9.45c.22-.18.39-.34.6-.52l.43.49L15.91,9v-.7h.72V9l.95.39L18,8.89l.53.57-.5.43.39.95h.7v.73h-.7c-.12.31-.24.6-.38.94l.54.45-.59.55c-.14-.18-.3-.37-.43-.52l-.95.4v.7h-.72v-.7L15,13l-.45.53L14,13l.53-.46-.4-.94Zm3.24-1.46h-.71c0-.1,0-.19,0-.3l-.35.15.19.22-.48.51L15,10.48l-.13.36.29,0v.7l-.3,0,.15.36.23-.2.5.49-.2.24.35.14c0-.12,0-.21,0-.3h.7c0,.11,0,.19,0,.3l.35-.15-.19-.22.48-.51.25.21c0-.13.09-.24.13-.36l-.3,0v-.7l.31,0c-.06-.12-.1-.23-.15-.34l-.21.17-.52-.47L17,10l-.36-.14C16.64,9.92,16.63,10,16.63,10.11Z"/><path class="cls-2" d="M9.06,12.44,8.54,12l.55-.55c.15.19.31.37.45.53l1-.4v-.7h.71v.7l1,.4.45-.53.55.55-.52.46c.13.33.25.61.39.93h.69v.73H13l-.39.94.53.46L12.6,16l-.42-.49-1,.4v.7H10.5v-.7l-.95-.39c-.12.16-.27.35-.44.55l-.56-.59.52-.43-.4-1H8v-.73h.7ZM12,14.09v-.7l.3,0c-.05-.13-.1-.24-.15-.35l-.21.17-.52-.47.21-.24-.36-.14c0,.12,0,.2,0,.3H10.5l0-.3-.34.15.18.22-.48.51L9.59,13l-.14.36.3,0v.7l-.3,0,.15.35a2.31,2.31,0,0,1,.21-.18l.52.47-.21.24.36.14c0-.12,0-.21,0-.3h.7a3,3,0,0,1,0,.31l.36-.15-.18-.22.47-.52.24.21.14-.36Z"/><path class="cls-2" d="M2.17,6.86H1.45v-.2c0-.91,0-1.81,0-2.71A2.46,2.46,0,0,1,2.1,2.29l.53.48a2,2,0,0,0-.46,1.48C2.18,5.11,2.17,6,2.17,6.86Z"/><path class="cls-2" d="M4,2.15l-.6.1c-.07-.21-.15-.42-.24-.68L4,1.42Z"/></g></g></g></svg>