<?xml version="1.0" encoding="UTF-8" standalone="no"?>
<!DOCTYPE svg PUBLIC "-//W3C//DTD SVG 1.1//EN" "http://www.w3.org/Graphics/SVG/1.1/DTD/svg11.dtd">
<svg width="100%" height="100%" viewBox="0 0 45 119" version="1.1" xmlns="http://www.w3.org/2000/svg" xmlns:xlink="http://www.w3.org/1999/xlink" xml:space="preserve" xmlns:serif="http://www.serif.com/" style="fill-rule:evenodd;clip-rule:evenodd;stroke-linejoin:round;stroke-miterlimit:2;">
    <g transform="matrix(1,0,0,1,-670.357,-5272.13)">
        <g transform="matrix(2,0,0,2,0,0)">
            <g transform="matrix(1,0,0,1,346.372,2693.09)">
                <g id="comprehensive">
                    <path d="M0,-54.558L-7.021,-54.558C-8.113,-54.558 -8.707,-54.125 -8.719,-53.326C-8.732,-52.512 -8.119,-52.059 -6.996,-52.059C-2.352,-52.059 2.291,-52.059 6.934,-52.061C7.164,-52.061 7.4,-52.065 7.627,-52.111C8.221,-52.229 8.623,-52.717 8.631,-53.294C8.641,-53.887 8.219,-54.4 7.6,-54.516C7.395,-54.556 7.178,-54.556 6.967,-54.557C4.645,-54.558 2.322,-54.558 0,-54.558M6.121,-49.556L-6.186,-49.556L-6.186,-34.751L6.121,-34.751L6.121,-49.556ZM-6.182,-24.811L-6.182,-19.864C-6.061,-19.854 -5.984,-19.844 -5.908,-19.844C-4.785,-19.841 -3.662,-19.855 -2.539,-19.835C-1.811,-19.821 -1.316,-19.319 -1.301,-18.638C-1.285,-17.941 -1.754,-17.433 -2.471,-17.383C-2.74,-17.364 -3.014,-17.373 -3.285,-17.373C-4.248,-17.372 -5.209,-17.373 -6.18,-17.373C-6.203,-17.208 -6.229,-17.115 -6.229,-17.022C-6.225,-13.304 -6.277,-9.585 -6.199,-5.868C-6.119,-2.121 -2.408,0.677 1.242,-0.151C4.246,-0.832 6.141,-3.268 6.143,-6.486C6.148,-14.851 6.145,-23.218 6.143,-31.584C6.143,-31.789 6.123,-31.994 6.113,-32.208L-6.193,-32.208L-6.193,-27.279L-5.586,-27.279C-4.578,-27.278 -3.572,-27.293 -2.566,-27.273C-1.738,-27.257 -1.219,-26.655 -1.311,-25.87C-1.387,-25.23 -1.869,-24.823 -2.619,-24.814C-3.795,-24.801 -4.971,-24.811 -6.182,-24.811M-1.09,2.469C-1.479,2.374 -1.869,2.286 -2.256,2.182C-6.131,1.145 -8.719,-2.256 -8.727,-6.364C-8.738,-12.56 -8.73,-18.755 -8.73,-24.95C-8.73,-33.022 -8.734,-41.096 -8.721,-49.168C-8.721,-49.602 -8.828,-49.835 -9.236,-50.058C-10.645,-50.829 -11.326,-52.071 -11.172,-53.664C-11.018,-55.226 -10.135,-56.292 -8.646,-56.834C-8.488,-56.892 -8.334,-56.962 -8.178,-57.027L7.975,-57.027C8.563,-56.748 9.225,-56.564 9.727,-56.175C11.789,-54.568 11.496,-51.303 9.189,-50.076C8.73,-49.832 8.633,-49.566 8.633,-49.095C8.646,-34.889 8.646,-20.683 8.643,-6.476C8.641,-2.557 6.418,0.7 2.887,1.955C2.275,2.172 1.631,2.3 1.002,2.469L-1.09,2.469Z" style="fill:white;"/>
                </g>
            </g>
        </g>
    </g>
</svg>
