<svg xmlns="http://www.w3.org/2000/svg" viewBox="0 0 64.76 67.23"><defs><style>.cls-1{fill:#fff;fill-rule:evenodd;}</style></defs><g id="Layer_2" data-name="Layer 2"><g id="Layer_1-2" data-name="Layer 1"><path class="cls-1" d="M3.5,67.23a1.55,1.55,0,0,0-.22-.12A4.13,4.13,0,0,1,0,63Q0,52.72,0,42.48a4.15,4.15,0,0,1,4.37-4.26c1.66,0,3.32,0,5,0a4.33,4.33,0,0,1,4.1,2.21l.12.18c2-1,4-1.93,6-2.86a21.72,21.72,0,0,1,10.39-2c3.12.15,6.25.26,9.38.37A5,5,0,0,1,40.19,46c-2.28.45-4.55.88-6.83,1.31-.91.17-1,.59-.67,1.45a2.15,2.15,0,0,0,2.57,1.42,45.86,45.86,0,0,1,5.11-.2,11.49,11.49,0,0,0,7.46-2.79c2.83-2.34,5.69-4.64,8.56-7A5.06,5.06,0,1,1,62.86,48c-3.32,2.78-6.66,5.53-10,8.3a21.27,21.27,0,0,1-7.35,3.94,24.88,24.88,0,0,1-8.76.8c-4.57-.24-9.14-.42-13.71-.61a36.72,36.72,0,0,0-7.59,1c-.45.07-.9.17-1.46.27v1.07a4.22,4.22,0,0,1-3.36,4.41,1.51,1.51,0,0,0-.17.1ZM14,58.87l1.39-.25a35.92,35.92,0,0,1,8.45-1l12.39.58a25.33,25.33,0,0,0,7.57-.4,19.81,19.81,0,0,0,8-4.24C54.88,51,58,48.48,61.06,45.93a2.27,2.27,0,0,0,.67-3.08,2.34,2.34,0,0,0-3.67-.52c-3,2.44-6,4.91-9.08,7.33a12.86,12.86,0,0,1-7.47,2.88c-2.31.13-4.63.14-6.95.27a3.71,3.71,0,0,1-3.8-2.13c-.17-.31-.36-.6-.53-.91a3.44,3.44,0,0,1,2.36-5.13c2.27-.47,4.55-.88,6.83-1.31a2.34,2.34,0,0,0,2.15-2.45,2.28,2.28,0,0,0-2.45-2c-2.54-.1-5.07-.18-7.61-.33a21,21,0,0,0-10.46,1.54c-2.15,1-4.29,2.06-6.45,3.06a.91.91,0,0,0-.63,1c0,4.68,0,9.36,0,14Zm-2.73-6.15v-10c0-1.2-.53-1.73-1.71-1.73-1.71,0-3.42,0-5.12,0-1.16,0-1.71.56-1.71,1.75V62.77c0,1.18.55,1.73,1.72,1.73,1.67,0,3.33,0,5,0,1.33,0,1.83-.49,1.83-1.81Z"/><path class="cls-1" d="M44.6,0a40.7,40.7,0,0,1,4.14.93A17.66,17.66,0,1,1,40.68.17l1-.17ZM43.16,32.75a15,15,0,1,0-15-15A15,15,0,0,0,43.16,32.75Z"/><path class="cls-1" d="M43.76,16.27H38.6c-.24,0-.48,0-.72,0A1.39,1.39,0,0,1,36.5,15a1.35,1.35,0,0,1,1.37-1.39c1,0,2.05,0,3.08,0h2.69a2.78,2.78,0,0,0-2.53-1.85c-1,0-2,0-3,0s-1.66-.55-1.66-1.38.65-1.35,1.68-1.35h10c1.16,0,1.85.85,1.5,1.81a1.34,1.34,0,0,1-1.38.91c-.78,0-1.56,0-2.39,0,.25.63.48,1.21.75,1.87h1.51c1,0,1.6.55,1.61,1.36s-.63,1.36-1.6,1.37c-.52,0-1,0-1.56,0a6.06,6.06,0,0,1-5.37,4.51l3.29,3.13c.57.54,1.15,1.07,1.71,1.62a1.35,1.35,0,0,1,.09,2,1.33,1.33,0,0,1-1.94,0Q40.72,24,37,20.46A1.38,1.38,0,0,1,38,18c1,0,2,0,3.08,0A3.06,3.06,0,0,0,43.76,16.27Z"/></g></g></svg>