<?xml version="1.0" encoding="UTF-8" standalone="no"?>
<!DOCTYPE svg PUBLIC "-//W3C//DTD SVG 1.1//EN" "http://www.w3.org/Graphics/SVG/1.1/DTD/svg11.dtd">
<svg width="100%" height="100%" viewBox="0 0 175 198" version="1.1" xmlns="http://www.w3.org/2000/svg" xmlns:xlink="http://www.w3.org/1999/xlink" xml:space="preserve" xmlns:serif="http://www.serif.com/" style="fill-rule:evenodd;clip-rule:evenodd;stroke-linejoin:round;stroke-miterlimit:2;">
    <g transform="matrix(1,0,0,1,-1432.69,-4455.19)">
        <g transform="matrix(2,0,0,2,0,0)">
            <g transform="matrix(1,0,0,1,790.894,2265.5)">
                <path d="M0,22.757C-0.017,20.985 -1.272,19.631 -2.867,19.663C-4.402,19.695 -5.591,21.083 -5.578,22.829C-5.564,24.568 -4.349,25.925 -2.801,25.93C-1.219,25.935 0.016,24.537 0,22.757M2.807,-23.875C3.501,-24.607 4.239,-25.383 4.955,-26.138C2.812,-28.519 0.69,-30.877 -1.355,-33.15C-2.037,-32.425 -2.773,-31.641 -3.456,-30.916C-1.341,-28.538 0.77,-26.166 2.807,-23.875M-9.046,-21.41C-7.906,-20.136 -6.722,-18.81 -5.587,-17.541C-3.991,-19.326 -2.338,-21.175 -0.833,-22.857C-1.964,-24.132 -3.156,-25.474 -4.324,-26.79C-5.854,-25.047 -7.473,-23.203 -9.046,-21.41M-32.069,38.463C-31.892,38.528 -31.838,38.565 -31.784,38.565C-26.639,38.57 -21.493,38.577 -16.347,38.567C-16.149,38.565 -15.871,38.469 -15.767,38.305C-15.193,37.408 -14.662,36.475 -14.114,35.55C-14.164,35.519 -14.208,35.462 -14.254,35.462C-19.028,35.465 -23.803,35.41 -28.575,35.508C-30.219,35.543 -31.325,36.726 -32.069,38.463M-21.807,13.434C-26.749,7.879 -31.67,2.347 -36.507,-3.091C-37.189,-2.355 -37.919,-1.57 -38.568,-0.871C-33.66,4.641 -28.735,10.17 -23.833,15.674C-23.181,14.953 -22.472,14.17 -21.807,13.434M-10.468,-0.821C-10.453,-0.797 -10.416,-0.709 -10.357,-0.646C-5.919,4.066 -2.837,9.703 -1.154,16.305C-1.077,16.606 -0.762,16.911 -0.491,17.057C3.517,19.22 3.997,24.955 0.423,27.952C0.17,28.165 -0.034,28.582 -0.09,28.938C-0.357,30.61 -0.593,32.287 -0.772,33.972C-0.811,34.332 -0.672,34.848 -0.445,35.091C0.667,36.284 1.568,37.634 2.12,39.246C2.406,40.078 2.583,40.956 2.824,41.868C8.63,26.697 5.427,6.736 -6.541,-5.228C-7.831,-3.781 -9.118,-2.337 -10.468,-0.821M-22.577,7.682C-16.707,1.088 -10.839,-5.505 -5.031,-12.031C-7.986,-15.347 -11.034,-18.769 -13.974,-22.072C-19.808,-15.52 -25.682,-8.926 -31.521,-2.371C-28.543,0.977 -25.498,4.399 -22.577,7.682M-40.675,57.473L9.824,57.473C10.289,53.677 8.225,51.077 4.872,51.206C0.76,51.364 -3.359,51.245 -7.476,51.242C-7.777,51.241 -8.078,51.213 -8.372,51.197L-8.372,48.031L-0.046,48.031C-0.046,46.148 0.029,44.384 -0.061,42.632C-0.236,39.202 -2.552,36.339 -5.623,35.608C-8.551,34.914 -11.659,36.547 -13.124,39.479C-14.472,42.178 -13.929,45.086 -14.058,48.072L-11.274,48.072L-11.274,51.244L-12.336,51.244C-20.253,51.244 -28.171,51.307 -36.088,51.21C-38.798,51.178 -41.308,53.392 -40.675,57.473M-1.256,-37.9C-1.061,-37.635 -0.885,-37.347 -0.667,-37.104C2.559,-33.513 5.79,-29.927 8.996,-26.365C6.831,-23.999 4.756,-21.731 2.642,-19.42C2.375,-19.705 1.927,-20.185 1.532,-20.607C-0.151,-18.719 -1.8,-16.867 -3.579,-14.873C-2.687,-13.974 -1.736,-13.014 -0.736,-12.006C-2.11,-10.528 -3.361,-9.18 -4.567,-7.879C9.448,8.802 12.146,27.34 3.618,47.996C4.449,48.046 5.351,48.096 6.252,48.153C9.708,48.376 12.569,51.774 12.643,55.629C12.675,57.287 12.648,58.948 12.648,60.657L-43.594,60.657C-43.506,57.287 -44.161,53.799 -41.898,50.875C-40.318,48.832 -38.296,48.05 -35.957,48.053C-29.954,48.057 -23.951,48.055 -17.948,48.055L-16.864,48.055L-16.864,41.793L-35.002,41.793C-35.557,38.455 -34.248,35.139 -31.758,33.443C-30.493,32.582 -29.112,32.263 -27.666,32.26C-20.891,32.248 -14.116,32.227 -7.342,32.28C-6.078,32.289 -4.816,32.632 -3.429,32.839C-3.27,31.698 -3.094,30.452 -2.922,29.222C-6.796,27.903 -8.266,26.195 -8.415,22.933C-8.541,20.179 -7.062,18.004 -4.036,16.571C-5.618,10.64 -8.476,5.62 -12.45,1.494C-15.079,4.447 -17.678,7.365 -20.325,10.336C-19.512,11.181 -18.574,12.154 -17.71,13.05C-19.9,15.499 -21.95,17.791 -23.949,20.027C-30.083,13.138 -36.342,6.111 -42.555,-0.867C-40.587,-3.078 -38.551,-5.364 -36.463,-7.71C-35.637,-6.725 -34.763,-5.683 -33.895,-4.648C-27.23,-12.133 -20.689,-19.476 -14.047,-26.933C-13.073,-25.753 -12.205,-24.697 -11.368,-23.682C-9.644,-25.647 -8.005,-27.515 -6.237,-29.531C-6.632,-29.846 -7.143,-30.254 -7.692,-30.692C-5.488,-33.228 -3.458,-35.564 -1.427,-37.9L-1.256,-37.9Z" style="fill:white;"/>
            </g>
            <g transform="matrix(1,0,0,1,728.186,2242.57)">
                <path d="M0,69.335L7.279,69.335C5.989,67.961 4.822,66.718 3.636,65.456C2.411,66.764 1.262,67.989 0,69.335M3.636,3.87C4.864,2.556 6.018,1.318 7.283,-0.038L-0.023,-0.038C1.253,1.326 2.4,2.551 3.636,3.87M3.633,8.181C1.954,10.185 0.388,12.053 -1.293,14.058L8.577,14.058C6.876,12.036 5.304,10.167 3.633,8.181M3.638,61.126C5.316,59.131 6.886,57.265 8.571,55.261L-1.304,55.261C0.396,57.279 1.961,59.136 3.638,61.126M12.574,75.702C11.774,74.661 11.129,73.767 10.425,72.938C10.241,72.721 9.877,72.606 9.595,72.605C5.625,72.583 1.655,72.587 -2.315,72.599C-2.556,72.599 -2.883,72.629 -3.023,72.798C-3.771,73.692 -4.473,74.637 -5.296,75.702L12.574,75.702ZM-5.335,48.934C-4.789,49.872 -4.345,50.719 -3.817,51.494C-3.632,51.767 -3.244,52.015 -2.946,52.019C1.45,52.051 5.847,52.042 10.244,52.034C10.454,52.034 10.763,52.014 10.857,51.866C11.449,50.948 11.993,49.993 12.622,48.934L-5.335,48.934ZM12.525,-6.318L-5.263,-6.318C-4.465,-5.293 -3.81,-4.411 -3.108,-3.578C-2.941,-3.38 -2.618,-3.256 -2.366,-3.255C1.628,-3.235 5.622,-3.237 9.616,-3.251C9.852,-3.252 10.166,-3.311 10.309,-3.483C11.042,-4.363 11.729,-5.288 12.525,-6.318M16.226,33.028C16.154,32.269 16.04,31.573 16.037,30.88C16.034,30.075 15.729,29.894 15.048,29.896C7.446,29.923 -0.154,29.912 -7.756,29.915C-8.034,29.915 -8.312,29.943 -8.666,29.962C-8.76,31.011 -8.85,32 -8.941,33.028L16.226,33.028ZM12.667,20.472C12.071,19.451 11.623,18.6 11.091,17.82C10.905,17.55 10.513,17.309 10.213,17.306C5.814,17.274 1.416,17.282 -2.982,17.295C-3.208,17.297 -3.531,17.37 -3.644,17.543C-4.222,18.438 -4.747,19.374 -5.402,20.486L6.364,20.486L6.364,23.588L5.357,23.588C1.559,23.588 -2.24,23.58 -6.039,23.602C-6.343,23.603 -6.823,23.693 -6.92,23.913C-7.306,24.787 -7.573,25.728 -7.914,26.733L15.182,26.733C14.908,25.9 14.629,25.14 14.412,24.356C14.237,23.726 13.912,23.55 13.337,23.571C12.008,23.622 10.675,23.588 9.333,23.588L9.333,20.472L12.667,20.472ZM-0.545,39.386L3.048,39.386C7.076,39.386 11.105,39.396 15.134,39.364C15.417,39.362 15.898,39.11 15.946,38.886C16.117,38.062 16.144,37.199 16.229,36.306L-8.941,36.306C-8.883,37.002 -8.781,37.636 -8.791,38.267C-8.808,39.273 -8.354,39.444 -7.567,39.405C-6.206,39.336 -4.841,39.386 -3.457,39.386L-3.457,42.58L-7.896,42.58C-7.748,43.067 -7.635,43.456 -7.514,43.84C-6.927,45.705 -6.926,45.705 -5.15,45.705L-3.864,45.705C1.879,45.705 7.622,45.709 13.365,45.69C13.661,45.69 14.124,45.569 14.223,45.345C14.599,44.496 14.856,43.581 15.204,42.56L-0.545,42.56L-0.545,39.386ZM5.496,63.123C6.004,63.646 6.331,63.95 6.625,64.29C9.181,67.224 11.814,70.082 14.255,73.132C15.96,75.264 17.253,77.751 17.599,80.691C17.707,81.609 17.701,82.543 17.752,83.553L15.065,83.553C14.86,82.226 14.656,80.916 14.455,79.604C14.367,79.025 14.065,78.871 13.554,78.873C6.952,78.891 0.349,78.892 -6.254,78.871C-6.809,78.868 -7.105,79.048 -7.196,79.669C-7.383,80.952 -7.589,82.231 -7.798,83.582L-10.377,83.582C-10.573,81.343 -10.257,79.242 -9.377,77.237C-7.924,73.932 -5.734,71.274 -3.438,68.715C-1.798,66.887 -0.117,65.106 1.563,63.285C0.044,61.454 -1.494,59.692 -2.939,57.839C-6.025,53.882 -8.68,49.606 -10.255,44.595C-12.955,36.006 -12.147,27.758 -8.27,19.831C-6.204,15.606 -3.458,11.959 -0.512,8.493C0.158,7.704 0.894,6.987 1.851,5.968C1.474,5.714 1.161,5.589 0.949,5.349C-1.662,2.385 -4.338,-0.515 -6.831,-3.599C-8.585,-5.77 -9.935,-8.293 -10.314,-11.292C-10.434,-12.236 -10.415,-13.204 -10.464,-14.245L-7.788,-14.245C-7.565,-12.696 -7.342,-11.145 -7.117,-9.576L-4.176,-9.576C1.684,-9.576 7.543,-9.591 13.402,-9.557C14.063,-9.554 14.413,-9.746 14.514,-10.482C14.681,-11.708 14.866,-12.932 15.057,-14.247L17.653,-14.247C17.86,-12.036 17.661,-9.853 16.627,-7.964C15.423,-5.765 14.121,-3.589 12.602,-1.66C10.675,0.785 8.489,2.974 6.412,5.269C6.188,5.515 5.949,5.742 5.684,6.013C7.051,7.647 8.4,9.2 9.687,10.814C13.027,14.997 15.906,19.516 17.576,24.882C20.231,33.421 19.391,41.606 15.555,49.467C13.281,54.125 10.207,58.086 6.896,61.832C6.497,62.284 6.018,62.647 5.496,63.123" style="fill:white;"/>
            </g>
        </g>
    </g>
</svg>
