<svg xmlns="http://www.w3.org/2000/svg" viewBox="0 0 49.92 56.41"><defs><style>.cls-1{fill:#fff;fill-rule:evenodd;}</style></defs><g id="Layer_2" data-name="Layer 2"><g id="Layer_1-2" data-name="Layer 1"><path class="cls-1" d="M42,0a5,5,0,0,0,.34.46L47.82,6.6l-3.64,4-.63-.68-2.93,3.28,1.63,1.64-2.19,2.36c8,9.55,9.56,20.16,4.68,32l1.51.09a4.26,4.26,0,0,1,3.66,4.28c0,.94,0,1.9,0,2.87H17.72c.05-1.93-.33-3.92,1-5.6a4,4,0,0,1,3.4-1.61H33V45.62H22.64a4.82,4.82,0,0,1,1.85-4.78,4,4,0,0,1,2.34-.68c3.88,0,7.76,0,11.64,0a17.49,17.49,0,0,1,2.24.32c.09-.65.19-1.37.29-2.07-2.22-.76-3.06-1.73-3.15-3.6a3.75,3.75,0,0,1,2.51-3.64,19.34,19.34,0,0,0-4.82-8.63L31,27.61l1.49,1.55-3.57,4-10.65-12,3.49-3.92L23.27,19,34.63,6.28c.56.67,1,1.28,1.53,1.86L39.1,4.79l-.83-.66L41.85,0ZM19.39,54.59h28.9c.27-2.17-.91-3.66-2.83-3.59-2.35.09-4.71,0-7.07,0l-.51,0V49.19h4.77c0-1.08,0-2.09,0-3.09a4.29,4.29,0,0,0-3.19-4,3.9,3.9,0,0,0-4.29,2.21c-.77,1.55-.46,3.21-.53,4.92h1.59V51h-.61c-4.53,0-9.06,0-13.6,0C20.46,51,19,52.25,19.39,54.59Zm10.36-28.5,10-11.28L34.67,9.06l-10,11.28Zm6.93-4.87a.37.37,0,0,0,.06.1A21.72,21.72,0,0,1,42,31a.84.84,0,0,0,.38.43,3.8,3.8,0,0,1,.52,6.23,1,1,0,0,0-.29.57c-.15,1-.29,1.91-.39,2.88a1,1,0,0,0,.18.64,6.56,6.56,0,0,1,1.48,2.38c.16.47.26,1,.4,1.5,3.32-8.68,1.49-20.11-5.36-27Zm-6.49,8.16c-2.83-3.18-5.65-6.34-8.41-9.46L20.59,21.2c2.82,3.15,5.63,6.32,8.44,9.46ZM24.32,43.71a.67.67,0,0,0,.16.06h8.83a.45.45,0,0,0,.34-.15c.32-.51.63-1,.94-1.58,0,0-.05,0-.08,0-2.73,0-5.46,0-8.19,0A2.31,2.31,0,0,0,24.32,43.71ZM37.49,9.44c.66.73,1.33,1.49,2,2.21l2.71-3-2-2.25ZM44.28,8l1.23-1.3-3.61-4c-.4.41-.82.86-1.21,1.28ZM42.67,34.72a1.61,1.61,0,1,0-1.6,1.82A1.68,1.68,0,0,0,42.67,34.72Z"/><path class="cls-1" d="M9.92,44.7c.29.3.48.48.65.67,1.46,1.68,3,3.32,4.37,5.06a8.55,8.55,0,0,1,1.91,4.33c.06.52.06,1.06.09,1.64H15.4c-.12-.76-.23-1.51-.35-2.26-.05-.33-.22-.42-.51-.42H3.2c-.32,0-.49.1-.54.45-.11.74-.23,1.47-.35,2.24H.84a7.34,7.34,0,0,1,.57-3.63,18.48,18.48,0,0,1,3.4-4.88c.94-1,1.9-2.06,2.86-3.1-.87-1-1.75-2.06-2.58-3.12A24.14,24.14,0,0,1,.91,34.1,18.51,18.51,0,0,1,2,19.92a32,32,0,0,1,4.44-6.49c.39-.45.81-.86,1.36-1.44a2.72,2.72,0,0,1-.52-.36c-1.49-1.69-3-3.35-4.45-5.12a8.65,8.65,0,0,1-2-4.4C.81,1.57.82,1,.79.42H2.32c.13.88.26,1.77.38,2.67H4.39c3.35,0,6.7,0,10.06,0,.38,0,.58-.11.63-.53.1-.7.21-1.4.32-2.15h1.48A6.1,6.1,0,0,1,16.29,4,25.73,25.73,0,0,1,14,7.62c-1.1,1.4-2.35,2.65-3.54,4-.13.14-.27.27-.42.42.78.94,1.55,1.83,2.29,2.75a24.78,24.78,0,0,1,4.52,8,18.49,18.49,0,0,1-1.16,14.08,31.62,31.62,0,0,1-5,7.07A8.42,8.42,0,0,1,9.92,44.7ZM6.46,31.12H8.52c2.31,0,4.61,0,6.92,0,.16,0,.44-.14.47-.27.09-.47.11-1,.16-1.48H1.66a11.32,11.32,0,0,1,.08,1.13c0,.57.25.67.71.65.78,0,1.56,0,2.35,0v1.82H2.26c.08.28.15.51.22.73.33,1.06.33,1.06,1.35,1.06h10.6c.17,0,.43-.06.49-.19.21-.49.36-1,.56-1.6h-9ZM14,20.29c-.34-.58-.6-1.07-.9-1.52a.75.75,0,0,0-.51-.29c-2.52,0-5,0-7.55,0a.48.48,0,0,0-.38.14c-.33.52-.63,1.05-1,1.69h6.74v1.77H3.32c-.17,0-.45.05-.5.18-.22.5-.38,1-.57,1.61H15.47c-.16-.47-.32-.91-.44-1.36a.53.53,0,0,0-.62-.45c-.76,0-1.52,0-2.29,0V20.29Zm2,7.19A11.21,11.21,0,0,1,16,26.25c0-.46-.18-.57-.57-.57-4.35,0-8.7,0-13,0l-.52,0c-.06.6-.11,1.17-.16,1.76ZM14,5H3.76c.46.58.84,1.09,1.24,1.56a.57.57,0,0,0,.42.19h6.86a.55.55,0,0,0,.4-.13C13.1,6.07,13.49,5.54,14,5ZM3.72,36.58c.32.54.57,1,.87,1.47a.78.78,0,0,0,.5.3c2.52,0,5,0,7.55,0,.12,0,.3,0,.35-.1.34-.53.65-1.07,1-1.68ZM14,51.9c-.45-.59-.82-1.1-1.23-1.58a.67.67,0,0,0-.47-.19c-2.27,0-4.55,0-6.82,0-.14,0-.32,0-.4.11-.43.51-.83,1-1.31,1.66ZM8.86,43.56l2.82-3.36H6Zm0-30.31L6,16.62h5.65Zm0-2.46,2.08-2.24H6.76ZM6.78,48.26h4.16c-.73-.79-1.4-1.5-2.08-2.22Z"/></g></g></svg>