<?xml version="1.0" encoding="UTF-8" standalone="no"?>
<!DOCTYPE svg PUBLIC "-//W3C//DTD SVG 1.1//EN" "http://www.w3.org/Graphics/SVG/1.1/DTD/svg11.dtd">
<svg width="100%" height="100%" viewBox="0 0 212 212" version="1.1" xmlns="http://www.w3.org/2000/svg" xmlns:xlink="http://www.w3.org/1999/xlink" xml:space="preserve" xmlns:serif="http://www.serif.com/" style="fill-rule:evenodd;clip-rule:evenodd;stroke-linejoin:round;stroke-miterlimit:2;">
    <g transform="matrix(1,0,0,1,-215.554,-4440.6)">
        <g transform="matrix(2,0,0,2,0,0)">
            <g transform="matrix(1,0,0,1,127.853,2288.24)">
                <path d="M0,-67.935C1.628,-67.526 3.286,-67.21 4.877,-66.693C7.242,-65.925 9.264,-64.554 11.025,-62.799C12.733,-61.097 14.449,-59.395 16.14,-57.672C17.025,-56.773 16.986,-55.713 16.062,-55.122C15.256,-54.604 14.564,-54.874 13.936,-55.504C12.308,-57.14 10.674,-58.774 9.035,-60.407C3.306,-66.102 -6.275,-66.306 -12.042,-60.858C-18.171,-55.067 -18.666,-45.746 -13.141,-39.525C-12.066,-38.313 -10.882,-37.201 -9.736,-36.052C-2.227,-28.537 5.271,-21.015 12.801,-13.523C17.133,-9.213 22.372,-7.996 28.134,-9.665C33.811,-11.307 37.301,-15.287 38.554,-21.031C39.71,-26.326 38.281,-31.035 34.498,-34.908C29.679,-39.843 24.76,-44.68 19.883,-49.559C19.616,-49.829 19.317,-50.078 19.106,-50.388C18.671,-51.03 18.681,-51.7 19.21,-52.288C19.766,-52.907 20.456,-53.013 21.166,-52.569C21.483,-52.373 21.742,-52.081 22.009,-51.813C26.742,-47.083 31.476,-42.355 36.203,-37.621C42.128,-31.682 43.578,-24.189 40.307,-16.438C40.243,-16.285 40.198,-16.125 40.117,-15.896C42.289,-15.013 44.424,-14.158 46.547,-13.276C47.525,-12.87 47.888,-12.182 47.646,-11.336C47.375,-10.387 46.47,-9.984 45.408,-10.402C43.358,-11.206 41.308,-12.02 39.284,-12.889C38.634,-13.169 38.27,-13.088 37.81,-12.527C36.938,-11.465 35.948,-10.505 34.904,-9.391C35.893,-7.473 36.964,-5.397 38.032,-3.324C38.768,-1.9 38.685,-1.016 37.773,-0.516C36.831,0 36.008,-0.459 35.259,-1.909C34.25,-3.868 33.243,-5.826 32.271,-7.714C30.517,-7.194 28.848,-6.524 27.115,-6.221C20.991,-5.143 15.47,-6.588 11.007,-10.962C2.39,-19.413 -6.091,-28.005 -14.619,-36.55C-17.563,-39.498 -19.355,-43.032 -19.902,-47.18C-19.925,-47.341 -20.017,-47.494 -20.076,-47.653L-20.076,-51.582C-20.009,-51.806 -19.923,-52.028 -19.881,-52.258C-18.56,-59.53 -14.537,-64.546 -7.498,-66.989C-6.217,-67.433 -4.847,-67.624 -3.519,-67.935L0,-67.935Z" style="fill:white;"/>
            </g>
            <g transform="matrix(1,0,0,1,213.746,2288.3)">
                <path d="M0,-21.84C-0.417,-19.578 -0.708,-17.285 -1.275,-15.062C-2.483,-10.34 -4.433,-5.944 -7.68,-2.239C-8.559,-1.236 -9.663,-0.432 -10.615,0.512C-10.882,0.775 -11.154,1.242 -11.114,1.581C-10.893,3.426 -10.583,5.264 -10.285,7.1C-9.892,9.53 -8.717,11.638 -7.517,13.735C-7.143,14.392 -6.766,15.053 -6.433,15.732C-6.002,16.617 -6.243,17.453 -7.011,17.876C-7.779,18.304 -8.609,18.067 -9.129,17.222C-11.585,13.222 -13.586,9.056 -13.874,4.26C-13.913,3.616 -14.071,2.98 -14.174,2.339C-14.281,2.295 -14.39,2.252 -14.497,2.209C-14.646,2.504 -14.92,2.789 -14.926,3.087C-14.966,4.982 -14.947,6.882 -14.947,8.778C-14.947,12.157 -14.944,15.537 -14.952,18.918C-14.952,19.293 -14.963,19.68 -15.053,20.044C-15.26,20.869 -15.861,21.245 -16.672,21.168C-17.435,21.094 -17.935,20.636 -18.021,19.837C-18.058,19.497 -18.05,19.147 -18.05,18.803C-18.051,13.632 -18.044,8.458 -18.066,3.285C-18.067,2.918 -18.287,2.549 -18.405,2.18C-18.543,2.201 -18.683,2.223 -18.821,2.244C-19.027,3.52 -19.276,4.792 -19.43,6.077C-19.756,8.817 -20.579,11.381 -21.966,13.771C-22.587,14.846 -23.157,15.946 -23.775,17.021C-24.363,18.041 -25.15,18.331 -25.984,17.876C-26.823,17.42 -27.019,16.574 -26.5,15.56C-26.233,15.04 -25.969,14.511 -25.648,14.023C-23.541,10.803 -22.634,7.212 -22.114,3.439C-21.879,1.738 -22.063,0.684 -23.56,-0.508C-27.017,-3.252 -29.012,-7.127 -30.534,-11.203C-32.726,-17.078 -33.766,-23.126 -32.542,-29.362C-30.79,-38.294 -24.576,-43.085 -15.471,-42.553C-13.674,-42.45 -11.879,-41.985 -10.127,-41.514C-8.728,-41.138 -8.27,-40.336 -8.593,-39.398C-8.953,-38.359 -9.755,-38.121 -11.171,-38.621C-14.394,-39.763 -17.682,-39.855 -20.939,-38.931C-26.065,-37.477 -28.786,-33.736 -29.518,-28.704C-30.783,-19.999 -28.678,-12.015 -23.55,-4.865C-22.877,-3.928 -21.996,-3.099 -21.087,-2.378C-18.057,0.031 -14.852,-0.018 -11.833,-2.438C-9.72,-4.133 -8.21,-6.312 -7.019,-8.706C-4.091,-14.596 -2.638,-20.795 -3.304,-27.401C-3.545,-29.795 -4.201,-32.058 -5.512,-34.111C-6.209,-35.197 -6.078,-36.108 -5.208,-36.617C-4.393,-37.09 -3.543,-36.783 -2.894,-35.76C-1.353,-33.322 -0.593,-30.623 -0.21,-27.795C-0.165,-27.462 -0.072,-27.137 0,-26.809L0,-21.84Z" style="fill:white;"/>
            </g>
            <g transform="matrix(1,0,0,1,137.143,2302.41)">
                <path d="M0,15.601C-0.9,13.45 -1.715,11.502 -2.613,9.36C-3.036,9.36 -3.755,9.387 -4.471,9.352C-5.463,9.307 -6.081,8.708 -6.098,7.83C-6.117,6.91 -5.482,6.299 -4.428,6.266C-3.744,6.244 -3.055,6.262 -2.598,6.262C-1.733,4.166 -0.93,2.211 -0.125,0.26C0.038,0.196 0.201,0.126 0.362,0.061C-0.204,-0.383 -0.826,-0.771 -1.328,-1.277C-2.053,-2.006 -2.025,-2.956 -1.367,-3.568C-0.734,-4.154 0.137,-4.131 0.856,-3.436C1.349,-2.96 1.767,-2.407 2.243,-1.856C4.079,-3.158 5.889,-4.022 7.931,-4.357C8.104,-4.385 8.305,-4.792 8.334,-5.041C8.398,-5.586 8.324,-6.145 8.377,-6.692C8.467,-7.674 9.111,-8.255 9.993,-8.214C10.834,-8.177 11.384,-7.593 11.448,-6.65C11.496,-5.937 11.275,-5.018 11.641,-4.564C12.002,-4.105 12.972,-4.178 13.628,-3.905C14.921,-3.361 16.18,-2.74 17.703,-2.032C18.038,-2.402 18.487,-2.966 19.005,-3.457C19.725,-4.14 20.603,-4.15 21.227,-3.549C21.896,-2.901 21.877,-2.049 21.163,-1.254C20.933,-1 20.689,-0.755 20.434,-0.524C20.179,-0.295 19.901,-0.087 19.832,-0.032C20.745,2.161 21.569,4.143 22.45,6.259C22.912,6.259 23.6,6.244 24.285,6.266C25.308,6.299 25.893,6.846 25.919,7.747C25.948,8.694 25.348,9.307 24.293,9.356C23.606,9.387 22.92,9.36 22.438,9.36C21.578,11.447 20.773,13.403 19.966,15.358C19.811,15.403 19.654,15.451 19.498,15.497C20.055,15.953 20.656,16.36 21.159,16.87C21.909,17.635 21.9,18.506 21.224,19.154C20.614,19.741 19.705,19.729 19,19.058C18.505,18.587 18.083,18.035 17.629,17.517C17.611,17.644 17.593,17.77 17.575,17.897C15.688,18.58 13.797,19.246 11.921,19.962C11.714,20.041 11.506,20.376 11.479,20.617C11.411,21.228 11.477,21.856 11.422,22.473C11.346,23.328 10.788,23.776 9.98,23.815C9.215,23.856 8.635,23.47 8.462,22.687C8.36,22.224 8.421,21.726 8.345,21.255C8.237,20.561 8.147,19.853 7.917,19.201C7.509,18.041 8.226,17.01 9.568,17.022C11.979,17.037 14.109,16.32 15.941,14.744C19.051,12.066 20,7.635 18.255,3.92C16.524,0.23 12.498,-1.951 8.582,-1.318C4.433,-0.648 1.318,2.58 0.822,6.694C0.464,9.666 1.342,12.195 3.429,14.327C4.669,15.592 4.421,16.497 2.814,17.303C2.135,17.647 1.625,18.329 1.053,18.866C0.176,19.698 -0.728,19.804 -1.4,19.141C-2.077,18.47 -1.994,17.543 -1.159,16.692C-0.727,16.255 -0.262,15.846 0,15.601" style="fill:white;"/>
            </g>
            <g transform="matrix(1,0,0,1,197.267,2269.42)">
                <path d="M0,-11.916C-3.473,-11.933 -6.079,-9.325 -6.071,-5.845C-6.063,-2.614 -3.289,0.121 -0.028,0.111C3.255,0.104 5.974,-2.606 5.969,-5.867C5.965,-9.333 3.43,-11.899 0,-11.916M9.072,-6.091C9.102,-0.843 5.189,3.137 -0.015,3.154C-5.19,3.171 -9.164,-0.816 -9.175,-6.039C-9.188,-10.963 -5.002,-15.087 -0.015,-15.066C4.964,-15.046 9.044,-11.015 9.072,-6.091" style="fill:white;"/>
            </g>
            <g transform="matrix(1,0,0,1,130.965,2241.52)">
                <path d="M0,-0.041C-0.011,-3.323 -2.753,-6.079 -5.975,-6.051C-9.415,-6.017 -12.008,-3.434 -12.017,-0.033C-12.021,3.419 -9.364,6.062 -5.914,6.03C-2.659,5.999 0.012,3.259 0,-0.041M-15.138,-0.041C-15.126,-5.001 -11.067,-9.122 -6.171,-9.153C-0.978,-9.183 3.066,-5.196 3.077,-0.033C3.088,5.133 -0.937,9.142 -6.13,9.135C-11.07,9.126 -15.152,4.969 -15.138,-0.041" style="fill:white;"/>
            </g>
            <g transform="matrix(1,0,0,1,148.312,2262.9)">
                <path d="M0,-9.13C-2.649,-9.122 -4.622,-7.137 -4.628,-4.477C-4.635,-1.97 -2.558,0.099 -0.015,0.115C2.58,0.136 4.675,-1.942 4.649,-4.513C4.625,-7.187 2.656,-9.142 0,-9.13M0.023,3.178C-4.419,3.178 -7.765,-0.2 -7.73,-4.65C-7.696,-8.852 -4.161,-12.309 0.069,-12.274C4.288,-12.234 7.729,-8.826 7.753,-4.653C7.778,-0.181 4.464,3.179 0.023,3.178" style="fill:white;"/>
            </g>
            <g transform="matrix(1,0,0,1,147.525,2308.94)">
                <path d="M0,0.04C0.018,-0.973 -0.713,-1.717 -1.723,-1.726C-2.69,-1.731 -3.503,-0.927 -3.491,0.026C-3.48,0.929 -2.692,1.734 -1.79,1.768C-0.82,1.798 -0.017,1.024 0,0.04M-1.692,-4.833C0.939,-4.844 3.089,-2.706 3.114,-0.058C3.137,2.638 0.974,4.873 -1.667,4.877C-4.431,4.884 -6.604,2.707 -6.575,-0.033C-6.549,-2.771 -4.462,-4.821 -1.692,-4.833" style="fill:white;"/>
            </g>
            <g transform="matrix(1,0,0,1,149.779,2269.51)">
                <path d="M0,4.73C-0.95,4.668 -1.543,4.32 -1.708,3.485C-1.88,2.619 -1.518,1.928 -0.671,1.725C1.774,1.145 4.231,0.606 6.7,0.146C7.485,0 8.11,0.471 8.299,1.293C8.485,2.097 8.216,2.86 7.423,3.058C4.922,3.691 2.389,4.199 0,4.73" style="fill:white;"/>
            </g>
            <g transform="matrix(1,0,0,1,196.665,2261.92)">
                <path d="M0,3.099C-0.621,3.099 -1.241,3.125 -1.859,3.091C-2.751,3.039 -3.236,2.514 -3.317,1.647C-3.396,0.819 -2.804,0.082 -1.917,0.039C-0.579,-0.027 0.767,-0.029 2.105,0.045C2.997,0.097 3.521,0.822 3.446,1.691C3.369,2.588 2.834,3.048 1.96,3.094C1.308,3.128 0.652,3.099 0,3.099" style="fill:white;"/>
            </g>
            <g transform="matrix(1,0,0,1,124.835,2239.97)">
                <path d="M0,3.072C-0.515,3.072 -1.039,3.127 -1.545,3.06C-2.411,2.945 -2.932,2.39 -2.926,1.53C-2.924,0.673 -2.417,0.071 -1.54,0.014C-0.443,-0.055 0.662,-0.052 1.758,0.014C2.645,0.07 3.13,0.676 3.13,1.535C3.13,2.399 2.626,2.962 1.752,3.06C1.173,3.123 0.583,3.072 0,3.072" style="fill:white;"/>
            </g>
        </g>
    </g>
</svg>
