<?xml version="1.0" encoding="UTF-8" standalone="no"?>
<!DOCTYPE svg PUBLIC "-//W3C//DTD SVG 1.1//EN" "http://www.w3.org/Graphics/SVG/1.1/DTD/svg11.dtd">
<svg width="100%" height="100%" viewBox="0 0 1188 736" version="1.1" xmlns="http://www.w3.org/2000/svg" xmlns:xlink="http://www.w3.org/1999/xlink" xml:space="preserve" xmlns:serif="http://www.serif.com/" style="fill-rule:evenodd;clip-rule:evenodd;stroke-linejoin:round;stroke-miterlimit:2;">
    <g transform="matrix(1,0,0,1,-219.925,-2897.79)">
        <g transform="matrix(2,0,0,2,0,0)">
            <g id="chart">
                <g transform="matrix(1,0,0,1,0,-3598.61)">
                    <rect x="512.723" y="5141.72" width="15.94" height="17.166" style="fill:rgb(234,31,45);"/>
                </g>
                <g transform="matrix(1,0,0,1,0,-3507.87)">
                    <rect x="512.723" y="5096.35" width="15.94" height="17.166" style="fill:rgb(50,71,102);"/>
                </g>
                <g transform="matrix(1,0,0,1,0,-3417.14)">
                    <rect x="512.723" y="5050.99" width="15.94" height="17.165" style="fill:rgb(4,180,84);"/>
                </g>
                <g opacity="0.35">
                    <g transform="matrix(1,0,0,1,0,-3321.91)">
                        <rect x="512.723" y="5003.37" width="15.94" height="17.165" style="fill:rgb(155,155,155);"/>
                    </g>
                </g>
                <g transform="matrix(1,0,0,1,273.675,1786.14)">
                    <path d="M0,-152.258L61.759,0C78.782,-6.884 94.353,-16.541 107.924,-28.428L0,-152.258Z" style="fill:rgb(50,71,102);"/>
                </g>
                <g transform="matrix(1,0,0,1,273.675,1757.84)">
                    <path d="M0,-123.957L-158.839,-164.18C-162.024,-151.325 -163.713,-137.853 -163.713,-123.957C-163.713,-32.746 -90.951,40.223 0,40.223C21.895,40.223 42.735,35.994 61.759,28.301L0,-123.957Z" style="fill:rgb(4,180,84);"/>
                </g>
                <g opacity="0.35">
                    <g transform="matrix(1,0,0,1,273.675,1469.7)">
                        <path d="M0,164.181L-0.133,0C-77.132,0.06 -141.069,52.42 -158.814,123.853L0,164.181Z" style="fill:rgb(155,155,155);"/>
                    </g>
                </g>
                <g transform="matrix(0.656385,0.754426,0.754426,-0.656385,300.716,1554.88)">
                    <path d="M48.065,-60.854L230.347,-60.854C230.224,-10.254 208.886,40.035 167.313,76.205C90.988,142.612 -23.027,134.887 -89.289,58.846L48.065,-60.854Z" style="fill:rgb(234,31,45);"/>
                </g>
                <g>
                    <text x="545.527px" y="1556.91px" style="font-family:'LucidaGrande', 'Lucida Grande', sans-serif;font-weight:500;font-size:19px;fill:rgb(93,93,93);">S<tspan x="556.125px 567.076px 579.399px 589.45px 595.307px " y="1556.91px 1556.91px 1556.91px 1556.91px 1556.91px ">epsis</tspan></text>
                    <text x="545.527px" y="1605.46px" style="font-family:'LucidaGrande', 'Lucida Grande', sans-serif;font-weight:500;font-size:19px;fill:rgb(93,93,93);">T<tspan x="555.445px " y="1605.46px ">B</tspan></text>
                    <text x="545.527px" y="1653.28px" style="font-family:'LucidaGrande', 'Lucida Grande', sans-serif;font-weight:500;font-size:19px;fill:rgb(93,93,93);">C<tspan x="560.159px 572.137px 585.414px 596.631px 608.702px " y="1653.28px 1653.28px 1653.28px 1653.28px 1653.28px ">ancer</tspan></text>
                    <text x="545.527px" y="1698.22px" style="font-family:'LucidaGrande', 'Lucida Grande', sans-serif;font-weight:500;font-size:19px;fill:rgb(93,93,93);">S<tspan x="555.542px 562.43px 569.985px 581.438px 592.324px " y="1698.22px 1698.22px 1698.22px 1698.22px 1698.22px ">troke</tspan></text>
                </g>
                <text x="512.723px" y="1816.25px" style="font-family:'LucidaGrande', 'Lucida Grande', sans-serif;font-weight:500;font-size:16px;fill:rgb(155,155,155);">S<tspan x="521.193px 530.875px 540.657px 547.057px 555.106px 563.873px 568.788px 575.315px 588.856px 600.467px 612.749px 618.499px 628.469px 638.44px 648.41px 658.38px 660.243px 672.081px 682.973px 692.943px " y="1816.25px 1816.25px 1816.25px 1816.25px 1816.25px 1816.25px 1816.25px 1816.25px 1816.25px 1816.25px 1816.25px 1816.25px 1816.25px 1816.25px 1816.25px 1816.25px 1816.25px 1816.25px 1816.25px 1816.25px ">ource: WHO 2020 DATA</tspan></text>
            </g>
        </g>
    </g>
</svg>
