<svg xmlns="http://www.w3.org/2000/svg" viewBox="0 0 22.3 59.5"><defs><style>.cls-1{fill:#fff;fill-rule:evenodd;}</style></defs><g id="Layer_2" data-name="Layer 2"><g id="Layer_1-2" data-name="Layer 1"><path class="cls-1" d="M10.1,59.5l-1.16-.29a8.67,8.67,0,0,1-6.47-8.55q0-9.28,0-18.58,0-12.12,0-24.22A.84.84,0,0,0,2,7,3.5,3.5,0,0,1,0,3.36,3.6,3.6,0,0,1,2.55.19C2.71.14,2.86.06,3,0H19.17a9.15,9.15,0,0,1,1.75.85A3.67,3.67,0,0,1,20.38,7a.92.92,0,0,0-.55,1q0,21.32,0,42.62A8.7,8.7,0,0,1,14.08,59c-.61.22-1.26.35-1.88.52ZM5,32.22v4.94l.28,0c1.12,0,2.24,0,3.36,0a1.2,1.2,0,0,1,1.24,1.2,1.18,1.18,0,0,1-1.17,1.25c-.27,0-.54,0-.81,0H5c0,.17,0,.26,0,.36,0,3.71,0,7.43,0,11.15a6.18,6.18,0,0,0,12.35-.62V25.44c0-.2,0-.41,0-.62H5v4.93h.61c1,0,2,0,3,0a1.21,1.21,0,0,1,1.25,1.41,1.19,1.19,0,0,1-1.31,1.05C7.4,32.23,6.22,32.22,5,32.22ZM17.31,7.47H5V22.28h12.3Zm-6.12-5h-7c-1.09,0-1.68.43-1.7,1.23S3.07,5,4.2,5H18.13a4,4,0,0,0,.69,0,1.22,1.22,0,0,0,1-1.19,1.23,1.23,0,0,0-1-1.22,3.28,3.28,0,0,0-.63,0Z"/></g></g></svg>