<?xml version="1.0" encoding="UTF-8" standalone="no"?>
<!DOCTYPE svg PUBLIC "-//W3C//DTD SVG 1.1//EN" "http://www.w3.org/Graphics/SVG/1.1/DTD/svg11.dtd">
<svg width="100%" height="100%" viewBox="0 0 128 191" version="1.1" xmlns="http://www.w3.org/2000/svg" xmlns:xlink="http://www.w3.org/1999/xlink" xml:space="preserve" xmlns:serif="http://www.serif.com/" style="fill-rule:evenodd;clip-rule:evenodd;stroke-linejoin:round;stroke-miterlimit:2;">
    <g transform="matrix(1,0,0,1,-2568.94,-4453.78)">
        <g transform="matrix(2,0,0,2,0,0)">
            <g transform="matrix(1,0,0,1,1316.46,2236.77)">
                <path d="M0,75.324C-9.225,75.324 -18.449,75.324 -27.674,75.325C-29.164,75.326 -29.271,75.436 -29.273,76.956C-29.276,78.298 -29.278,79.638 -29.272,80.98C-29.268,82.347 -29.124,82.491 -27.746,82.492C-21.203,82.494 -14.661,82.493 -8.118,82.493C3.691,82.493 15.5,82.494 27.31,82.493C28.968,82.493 29.056,82.408 29.059,80.805C29.06,79.497 29.062,78.188 29.058,76.881C29.053,75.456 28.921,75.326 27.477,75.326C18.318,75.324 9.159,75.324 0,75.324M0,-7.169C-9.192,-7.169 -18.384,-7.17 -27.577,-7.169C-29.19,-7.169 -29.272,-7.084 -29.274,-5.435C-29.275,-4.093 -29.281,-2.753 -29.272,-1.41C-29.264,-0.174 -29.092,0 -27.842,-0.002C-23.198,-0.01 -18.552,-0.036 -13.907,-0.035C-0.136,-0.03 13.636,-0.013 27.408,-0.001C28.959,0 29.056,-0.101 29.059,-1.684C29.06,-2.992 29.062,-4.301 29.058,-5.609C29.053,-7.033 28.917,-7.168 27.479,-7.169C18.32,-7.17 9.16,-7.169 0,-7.169M17.48,72.479C17.879,69.355 17.22,66.567 15.527,64.065C14.614,62.715 13.622,61.399 12.531,60.191C9.019,56.303 4.862,53.185 0.512,50.303C-0.008,49.958 -0.363,50.052 -0.794,50.374C-3.487,52.393 -6.27,54.303 -8.863,56.443C-11.798,58.864 -14.413,61.614 -16.299,64.982C-17.608,67.319 -18.009,69.801 -17.7,72.479L17.48,72.479ZM-22.962,2.799C-22.962,7.087 -22.968,11.269 -22.953,15.451C-22.952,15.87 -22.848,16.296 -22.754,16.709C-21.963,20.188 -20.033,23.053 -17.798,25.736C-14.489,29.708 -10.591,33.044 -6.467,36.134C-4.938,37.278 -4.945,38.025 -6.431,39.178C-7.905,40.32 -9.391,41.451 -10.809,42.66C-14.533,45.834 -18.002,49.248 -20.585,53.458C-21.899,55.601 -22.946,57.881 -23.006,60.425C-23.099,64.382 -23.026,68.344 -23.019,72.303C-23.019,72.356 -22.958,72.409 -22.861,72.568C-22.473,72.568 -22.022,72.574 -21.573,72.567C-21.253,72.561 -20.934,72.54 -20.65,72.527C-20.588,72.4 -20.546,72.346 -20.537,72.287C-20.518,72.159 -20.501,72.026 -20.511,71.896C-20.847,67.331 -19.019,63.545 -16.236,60.118C-11.952,54.844 -6.636,50.784 -0.88,47.27C-0.468,47.017 0.392,47.079 0.827,47.346C6.286,50.709 11.348,54.57 15.513,59.497C17.579,61.939 19.353,64.582 19.979,67.783C20.277,69.307 20.282,70.888 20.422,72.479L22.824,72.479C22.824,68.792 22.812,65.194 22.829,61.597C22.838,59.6 22.434,57.7 21.629,55.882C20.301,52.882 18.325,50.323 16.125,47.928C13.057,44.59 9.603,41.686 5.978,38.979C5.079,38.307 4.874,37.501 5.444,36.821C5.691,36.526 6.033,36.307 6.345,36.071C10.978,32.563 15.362,28.791 18.858,24.097C20.852,21.421 22.59,18.557 22.731,15.133C22.896,11.114 22.788,7.085 22.792,3.059C22.792,2.978 22.703,2.895 22.647,2.799L-22.962,2.799ZM25.528,72.602C26.495,72.602 27.338,72.587 28.18,72.605C30.245,72.653 31.699,74.067 31.748,76.13C31.79,77.897 31.776,79.666 31.757,81.432C31.731,83.795 30.303,85.206 27.937,85.207C18.053,85.212 8.167,85.209 -1.717,85.209C-10.456,85.209 -19.195,85.211 -27.935,85.209C-30.618,85.208 -31.967,83.856 -31.976,81.163C-31.982,79.525 -31.998,77.888 -31.97,76.252C-31.933,74.067 -30.498,72.643 -28.323,72.604C-27.513,72.589 -26.702,72.602 -25.769,72.602L-25.769,71.447C-25.769,68.698 -25.638,65.94 -25.796,63.2C-26.101,57.937 -24.222,53.478 -21.124,49.392C-17.933,45.185 -14.063,41.678 -9.94,38.425C-9.661,38.204 -9.382,37.983 -8.999,37.678C-9.322,37.411 -9.582,37.187 -9.852,36.974C-14.517,33.288 -18.892,29.319 -22.243,24.342C-24.586,20.863 -25.943,17.104 -25.789,12.832C-25.682,9.857 -25.769,6.875 -25.769,3.897L-25.769,2.721C-26.718,2.721 -27.56,2.739 -28.401,2.718C-30.466,2.666 -31.919,1.247 -31.965,-0.813C-32.004,-2.579 -31.992,-4.348 -31.973,-6.114C-31.948,-8.477 -30.521,-9.882 -28.151,-9.883C-15.386,-9.888 -2.621,-9.885 10.144,-9.885C16.036,-9.885 21.928,-9.888 27.819,-9.884C30.366,-9.882 31.745,-8.501 31.76,-5.936C31.77,-4.266 31.784,-2.597 31.754,-0.927C31.714,1.257 30.277,2.678 28.103,2.72C27.292,2.737 26.48,2.723 25.584,2.723C25.562,3.169 25.532,3.516 25.531,3.865C25.527,6.647 25.4,9.436 25.556,12.211C25.846,17.399 24.008,21.804 20.966,25.846C17.892,29.933 14.17,33.361 10.193,36.535C9.761,36.88 9.327,37.221 8.784,37.651C9.131,37.936 9.415,38.18 9.709,38.414C14.351,42.079 18.692,46.037 22.019,50.987C24.359,54.47 25.711,58.229 25.55,62.503C25.437,65.477 25.528,68.459 25.528,71.438L25.528,72.602Z" style="fill:white;"/>
            </g>
            <g transform="matrix(1,0,0,1,1303.16,2268.94)">
                <path d="M0,-14.515C0.202,-12.851 0.911,-11.532 1.781,-10.3C4.701,-6.161 8.626,-3.129 12.818,-0.409C13.038,-0.265 13.583,-0.371 13.825,-0.557C16.24,-2.4 18.761,-4.137 20.97,-6.206C22.665,-7.794 24.023,-9.766 25.393,-11.666C25.952,-12.442 26.146,-13.48 26.552,-14.515L0,-14.515ZM13.237,-17.288C17.915,-17.288 22.591,-17.29 27.269,-17.287C28.782,-17.287 29.186,-16.861 29.182,-15.368C29.174,-12.763 28.115,-10.543 26.651,-8.49C23.955,-4.708 20.424,-1.806 16.659,0.835C15.83,1.416 15.012,2.043 14.104,2.468C13.618,2.696 12.807,2.775 12.389,2.518C7.759,-0.309 3.484,-3.583 0.149,-7.926C-1.527,-10.11 -2.779,-12.493 -2.792,-15.355C-2.799,-16.861 -2.4,-17.287 -0.894,-17.287C3.817,-17.29 8.526,-17.288 13.237,-17.288" style="fill:white;"/>
            </g>
        </g>
    </g>
</svg>
