<svg xmlns="http://www.w3.org/2000/svg" viewBox="0 0 39.83 60.82"><defs><style>.cls-1{fill:#fff;fill-rule:evenodd;}</style></defs><g id="Layer_2" data-name="Layer 2"><g id="Layer_1-2" data-name="Layer 1"><path class="cls-1" d="M35.93,52.76h1.65A2.19,2.19,0,0,1,39.81,55c0,1.13,0,2.27,0,3.4a2.21,2.21,0,0,1-2.38,2.41H2.53C.86,60.82,0,60,0,58.23c0-1,0-2.09,0-3.14a2.21,2.21,0,0,1,2.28-2.33h1.6V52c0-1.76.08-3.52,0-5.28a13.21,13.21,0,0,1,2.92-8.83,38.93,38.93,0,0,1,7-7l.59-.48L13.83,30a36,36,0,0,1-7.74-8.08,12.31,12.31,0,0,1-2.22-7.36c.07-1.9,0-3.81,0-5.71V8.06H2.24A2.19,2.19,0,0,1,0,5.8C0,4.67,0,3.54,0,2.41A2.22,2.22,0,0,1,2.4,0h35a2.25,2.25,0,0,1,2.46,2.53c0,1.06,0,2.13,0,3.2a2.2,2.2,0,0,1-2.28,2.33H36c0,.29,0,.51,0,.73,0,1.78-.09,3.57,0,5.34a13.14,13.14,0,0,1-2.87,8.72,37.53,37.53,0,0,1-6.72,6.84l-.88.71.57.49a36,36,0,0,1,7.69,8,12.33,12.33,0,0,1,2.21,7.37c-.07,1.9,0,3.81,0,5.71ZM5.64,8.11V16.2a3.7,3.7,0,0,0,.13.81,14,14,0,0,0,3.09,5.77,41.27,41.27,0,0,0,7.08,6.65c1,.73,1,1.21,0,1.95s-1.85,1.45-2.73,2.23a29.4,29.4,0,0,0-6.11,6.9A9.14,9.14,0,0,0,5.61,45c-.06,2.53,0,5.06,0,7.6,0,0,0,.06.1.17h.81l.57,0a.56.56,0,0,0,.07-.15.72.72,0,0,0,0-.25,10.63,10.63,0,0,1,2.67-7.54,36.9,36.9,0,0,1,9.59-8.21,1.19,1.19,0,0,1,1.07,0,37.49,37.49,0,0,1,9.17,7.78,11.86,11.86,0,0,1,2.79,5.3c.18,1,.19,2,.28,3h1.5c0-2.36,0-4.66,0-7a9.18,9.18,0,0,0-.75-3.66A18.74,18.74,0,0,0,30.05,37a45.28,45.28,0,0,0-6.34-5.73c-.56-.43-.69-.94-.33-1.38a3.23,3.23,0,0,1,.56-.48,38.56,38.56,0,0,0,7.82-7.65A10.65,10.65,0,0,0,34.18,16c.1-2.57,0-5.15,0-7.72,0,0-.05-.11-.09-.17ZM30.9,52.68a7.73,7.73,0,0,0-1.22-5.38,21.75,21.75,0,0,0-1.87-2.48A38.75,38.75,0,0,0,20.3,38.5a.59.59,0,0,0-.82,0c-1.68,1.29-3.42,2.51-5,3.88A19.53,19.53,0,0,0,9.8,47.88a7.81,7.81,0,0,0-.87,4.8ZM20,1.74H2.76c-1,0-1.06.05-1.06,1.11,0,.85,0,1.71,0,2.57s.11.9.89.9l8.7,0,25.81,0c1,0,1-.06,1-1.07V2.74c0-.92-.09-1-1-1ZM20,54.5H2.69c-.92,0-1,.07-1,1s0,1.72,0,2.58.09,1,1,1H37c1,0,1.09,0,1.09-1.08V55.49c0-.91-.09-1-1-1Z"/><path class="cls-1" d="M19.94,15.84H28.7c.95,0,1.2.27,1.2,1.23a7.75,7.75,0,0,1-1.58,4.4,25.6,25.6,0,0,1-6.24,6,11,11,0,0,1-1.6,1,1.3,1.3,0,0,1-1.07,0,27.57,27.57,0,0,1-7.64-6.68,7.9,7.9,0,0,1-1.84-4.75c0-1,.24-1.24,1.18-1.24Zm-8.27,1.77a5.94,5.94,0,0,0,1.11,2.7,24.45,24.45,0,0,0,6.9,6.32.67.67,0,0,0,.63-.09c1.51-1.18,3.08-2.29,4.46-3.61a23.41,23.41,0,0,0,2.76-3.49,9.07,9.07,0,0,0,.73-1.83Z"/></g></g></svg>