<?xml version="1.0" encoding="UTF-8" standalone="no"?>
<!DOCTYPE svg PUBLIC "-//W3C//DTD SVG 1.1//EN" "http://www.w3.org/Graphics/SVG/1.1/DTD/svg11.dtd">
<svg width="100%" height="100%" viewBox="0 0 92 92" version="1.1" xmlns="http://www.w3.org/2000/svg" xmlns:xlink="http://www.w3.org/1999/xlink" xml:space="preserve" xmlns:serif="http://www.serif.com/" style="fill-rule:evenodd;clip-rule:evenodd;stroke-linejoin:round;stroke-miterlimit:2;">
    <g transform="matrix(1,0,0,1,-1064.41,-5909.25)">
        <g transform="matrix(2,0,0,2,0,0)">
            <g transform="matrix(1,0,0,1,556.475,3000.32)">
                <path d="M0,-45.689C0.806,-45.575 1.615,-45.477 2.417,-45.343C6.076,-44.731 9.377,-43.284 12.337,-41.056C14.399,-39.505 16.147,-37.654 17.578,-35.505C17.636,-35.419 17.701,-35.338 17.815,-35.182C17.83,-35.371 17.846,-35.489 17.846,-35.607C17.849,-37.094 17.836,-38.581 17.854,-40.068C17.863,-40.955 18.447,-41.637 19.291,-41.816C20.07,-41.981 20.913,-41.565 21.234,-40.813C21.348,-40.549 21.406,-40.241 21.409,-39.952C21.424,-38.256 21.43,-36.561 21.414,-34.866C21.382,-31.593 18.915,-29.127 15.637,-29.094C13.882,-29.077 12.128,-29.085 10.373,-29.093C9.272,-29.098 8.485,-29.842 8.478,-30.862C8.471,-31.901 9.263,-32.653 10.389,-32.659C11.949,-32.666 13.509,-32.66 15.208,-32.66C14.648,-33.446 14.181,-34.181 13.636,-34.853C10.733,-38.435 7.034,-40.765 2.513,-41.69C-2.966,-42.809 -8.038,-41.766 -12.598,-38.512C-16.415,-35.787 -18.968,-32.137 -20.098,-27.573C-21.463,-22.061 -20.605,-16.863 -17.432,-12.155C-14.278,-7.473 -9.849,-4.646 -4.244,-3.794C-2.932,-3.594 -1.578,-3.667 -0.244,-3.616C0.111,-3.601 0.475,-3.646 0.818,-3.58C1.699,-3.409 2.289,-2.604 2.222,-1.731C2.156,-0.852 1.457,-0.159 0.569,-0.085C0.29,-0.061 0.011,-0.028 -0.268,0L-2.767,0C-3.369,-0.071 -3.974,-0.132 -4.574,-0.217C-9.079,-0.854 -13.062,-2.653 -16.471,-5.664C-20.486,-9.21 -22.997,-13.623 -23.921,-18.913C-24.071,-19.772 -24.157,-20.641 -24.272,-21.506L-24.272,-24.182C-24.245,-24.34 -24.212,-24.497 -24.191,-24.655C-24.083,-25.479 -24.019,-26.311 -23.864,-27.127C-22.999,-31.676 -20.928,-35.608 -17.672,-38.895C-14.258,-42.34 -10.157,-44.511 -5.365,-45.337C-4.504,-45.485 -3.633,-45.573 -2.767,-45.689L0,-45.689Z" style="fill:rgb(4,180,84);"/>
            </g>
            <g transform="matrix(1,0,0,1,556.832,2977.24)">
                <path d="M0,-6.907C0,-4.633 -0.014,-2.357 0.008,-0.082C0.014,0.636 -0.217,1.204 -0.725,1.708C-2.974,3.939 -5.211,6.181 -7.447,8.423C-8.023,9.001 -8.684,9.245 -9.471,8.964C-10.583,8.564 -10.982,7.192 -10.274,6.241C-10.151,6.075 -10.003,5.926 -9.856,5.779C-7.881,3.8 -5.91,1.818 -3.92,-0.145C-3.65,-0.412 -3.562,-0.676 -3.563,-1.042C-3.573,-5.309 -3.571,-9.576 -3.569,-13.844C-3.568,-14.778 -3.152,-15.442 -2.408,-15.717C-1.227,-16.152 -0.019,-15.303 -0.005,-14.001C0.012,-12.276 0,-10.551 0,-8.826L0,-6.907Z" style="fill:rgb(4,180,84);"/>
            </g>
            <g transform="matrix(1,0,0,1,563.765,2993.86)">
                <path d="M0,4.623C-0.815,4.559 -1.486,4.021 -1.695,3.236C-1.893,2.486 -1.574,1.684 -0.875,1.289C-0.294,0.961 0.304,0.657 0.913,0.387C1.785,0 2.769,0.359 3.2,1.184C3.644,2.029 3.363,3.051 2.514,3.541C1.949,3.865 1.358,4.149 0.766,4.422C0.53,4.53 0.257,4.559 0,4.623" style="fill:rgb(4,180,84);"/>
            </g>
            <g transform="matrix(1,0,0,1,575.758,2985.59)">
                <path d="M0,-5.398C0.998,-5.411 1.868,-4.495 1.704,-3.447C1.585,-2.69 1.383,-1.936 1.131,-1.211C0.845,-0.383 -0.029,0.013 -0.942,-0.178C-1.708,-0.338 -2.354,-1.09 -2.243,-1.91C-2.126,-2.768 -1.896,-3.626 -1.596,-4.44C-1.356,-5.088 -0.752,-5.366 0,-5.398" style="fill:rgb(4,180,84);"/>
            </g>
            <g transform="matrix(1,0,0,1,570.977,2988.1)">
                <path d="M0,5.197C-0.73,5.081 -1.253,4.79 -1.593,4.204C-1.935,3.616 -1.96,2.984 -1.581,2.43C-1.146,1.796 -0.655,1.19 -0.125,0.634C0.468,0.01 1.477,0 2.156,0.53C2.854,1.075 3.089,2.073 2.598,2.803C2.162,3.453 1.661,4.072 1.109,4.626C0.83,4.907 0.375,5.012 0,5.197" style="fill:rgb(4,180,84);"/>
            </g>
        </g>
    </g>
</svg>
