<?xml version="1.0" encoding="UTF-8" standalone="no"?>
<!DOCTYPE svg PUBLIC "-//W3C//DTD SVG 1.1//EN" "http://www.w3.org/Graphics/SVG/1.1/DTD/svg11.dtd">
<svg width="100%" height="100%" viewBox="0 0 80 119" version="1.1" xmlns="http://www.w3.org/2000/svg" xmlns:xlink="http://www.w3.org/1999/xlink" xml:space="preserve" xmlns:serif="http://www.serif.com/" style="fill-rule:evenodd;clip-rule:evenodd;stroke-linejoin:round;stroke-miterlimit:2;">
    <g transform="matrix(1,0,0,1,-1210.31,-5272.13)">
        <g transform="matrix(2,0,0,2,0,0)">
            <g id="validated">
                <g transform="matrix(1,0,0,1,625.134,2642.24)">
                    <path d="M0,47.044L-17.285,47.044C-18.215,47.045 -18.281,47.114 -18.283,48.063C-18.285,48.901 -18.287,49.739 -18.283,50.577C-18.279,51.431 -18.189,51.52 -17.328,51.521C-13.242,51.522 -9.158,51.522 -5.07,51.522L17.057,51.522C18.092,51.522 18.146,51.468 18.148,50.467C18.15,49.65 18.15,48.833 18.148,48.016C18.145,47.126 18.062,47.045 17.16,47.045C11.441,47.044 5.721,47.044 0,47.044M0,-4.478C-5.742,-4.478 -11.482,-4.479 -17.223,-4.478C-18.232,-4.478 -18.283,-4.425 -18.283,-3.395C-18.283,-2.557 -18.287,-1.72 -18.283,-0.881C-18.277,-0.109 -18.17,-0.001 -17.391,-0.002C-14.488,-0.007 -11.588,-0.023 -8.686,-0.023C-0.084,-0.019 8.518,-0.009 17.117,-0.001C18.088,-0.001 18.146,-0.064 18.148,-1.053C18.15,-1.87 18.15,-2.686 18.148,-3.503C18.145,-4.394 18.061,-4.477 17.162,-4.478C11.441,-4.479 5.721,-4.478 0,-4.478M10.918,45.268C11.166,43.316 10.754,41.575 9.697,40.012C9.129,39.169 8.508,38.347 7.826,37.593C5.633,35.164 3.037,33.217 0.32,31.417C-0.006,31.201 -0.227,31.26 -0.496,31.461C-2.178,32.722 -3.916,33.915 -5.535,35.252C-7.369,36.764 -9.002,38.481 -10.182,40.585C-10.998,42.044 -11.248,43.594 -11.055,45.268L10.918,45.268ZM-14.342,1.747C-14.342,4.425 -14.344,7.038 -14.336,9.649C-14.336,9.911 -14.271,10.177 -14.213,10.435C-13.717,12.608 -12.512,14.398 -11.115,16.073C-9.049,18.554 -6.615,20.637 -4.039,22.567C-3.084,23.282 -3.09,23.748 -4.016,24.468C-4.937,25.182 -5.865,25.888 -6.752,26.643C-9.076,28.626 -11.244,30.758 -12.857,33.387C-13.678,34.726 -14.332,36.149 -14.369,37.738C-14.428,40.21 -14.381,42.684 -14.377,45.157C-14.377,45.19 -14.338,45.223 -14.277,45.323C-14.035,45.323 -13.754,45.326 -13.475,45.322C-13.273,45.318 -13.074,45.306 -12.896,45.297C-12.859,45.218 -12.832,45.185 -12.826,45.147C-12.814,45.067 -12.805,44.984 -12.811,44.903C-13.021,42.052 -11.879,39.687 -10.141,37.547C-7.465,34.252 -4.145,31.717 -0.549,29.523C-0.291,29.364 0.244,29.403 0.516,29.57C3.926,31.67 7.088,34.082 9.688,37.159C10.979,38.685 12.088,40.335 12.479,42.335C12.664,43.287 12.668,44.273 12.756,45.268L14.256,45.268C14.256,42.964 14.248,40.717 14.258,38.471C14.264,37.223 14.012,36.037 13.51,34.901C12.68,33.027 11.445,31.429 10.07,29.934C8.154,27.848 5.998,26.035 3.732,24.344C3.172,23.925 3.043,23.421 3.4,22.996C3.555,22.813 3.768,22.676 3.963,22.528C6.855,20.337 9.594,17.982 11.779,15.05C13.023,13.378 14.109,11.59 14.197,9.451C14.301,6.941 14.232,4.424 14.234,1.91C14.234,1.86 14.18,1.808 14.145,1.747L-14.342,1.747ZM15.945,45.344C16.547,45.344 17.074,45.335 17.6,45.346C18.891,45.376 19.797,46.259 19.828,47.547C19.855,48.651 19.848,49.756 19.834,50.859C19.818,52.335 18.926,53.216 17.449,53.216C11.275,53.22 5.102,53.218 -1.072,53.218C-6.531,53.218 -11.988,53.219 -17.447,53.218C-19.123,53.217 -19.965,52.373 -19.971,50.69C-19.975,49.668 -19.984,48.646 -19.967,47.624C-19.943,46.259 -19.049,45.37 -17.689,45.345C-17.184,45.336 -16.678,45.344 -16.094,45.344L-16.094,44.623C-16.094,42.905 -16.012,41.183 -16.111,39.472C-16.301,36.185 -15.129,33.4 -13.193,30.848C-11.201,28.22 -8.783,26.03 -6.209,23.998C-6.033,23.86 -5.859,23.722 -5.619,23.532C-5.82,23.365 -5.984,23.225 -6.152,23.092C-9.066,20.79 -11.799,18.311 -13.893,15.202C-15.355,13.029 -16.203,10.682 -16.107,8.014C-16.041,6.155 -16.094,4.293 -16.094,2.433L-16.094,1.699C-16.687,1.699 -17.213,1.71 -17.738,1.696C-19.027,1.664 -19.936,0.778 -19.965,-0.508C-19.988,-1.611 -19.98,-2.716 -19.969,-3.819C-19.955,-5.295 -19.062,-6.173 -17.582,-6.173C-9.609,-6.176 -1.637,-6.174 6.334,-6.174C10.016,-6.174 13.695,-6.176 17.375,-6.174C18.965,-6.173 19.828,-5.31 19.836,-3.708C19.842,-2.665 19.852,-1.623 19.832,-0.58C19.807,0.784 18.91,1.672 17.551,1.698C17.045,1.709 16.537,1.7 15.98,1.7C15.965,1.979 15.947,2.195 15.945,2.413C15.943,4.151 15.863,5.893 15.961,7.626C16.143,10.866 14.994,13.617 13.094,16.142C11.176,18.695 8.85,20.836 6.367,22.817C6.096,23.033 5.826,23.246 5.486,23.515C5.703,23.693 5.881,23.845 6.064,23.991C8.963,26.28 11.674,28.752 13.752,31.844C15.213,34.02 16.059,36.367 15.957,39.036C15.889,40.894 15.945,42.756 15.945,44.617L15.945,45.344Z" style="fill:white;"/>
                </g>
                <g transform="matrix(1,0,0,1,616.825,2662.33)">
                    <path d="M0,-9.066C0.127,-8.026 0.568,-7.203 1.113,-6.434C2.938,-3.849 5.389,-1.955 8.006,-0.255C8.143,-0.166 8.484,-0.232 8.635,-0.348C10.145,-1.499 11.719,-2.584 13.098,-3.877C14.156,-4.868 15.004,-6.1 15.859,-7.286C16.209,-7.771 16.33,-8.42 16.584,-9.066L0,-9.066ZM8.268,-10.798C11.189,-10.798 14.111,-10.799 17.031,-10.797C17.977,-10.797 18.229,-10.531 18.227,-9.598C18.221,-7.972 17.561,-6.585 16.645,-5.303C14.961,-2.941 12.756,-1.128 10.404,0.521C9.889,0.884 9.377,1.275 8.809,1.541C8.506,1.684 7.998,1.733 7.738,1.573C4.848,-0.193 2.178,-2.238 0.094,-4.95C-0.953,-6.315 -1.734,-7.803 -1.744,-9.59C-1.748,-10.531 -1.498,-10.797 -0.559,-10.797C2.385,-10.799 5.324,-10.798 8.268,-10.798" style="fill:white;"/>
                </g>
            </g>
        </g>
    </g>
</svg>
