<svg width="653" height="538" viewBox="0 0 653 538" fill="none" xmlns="http://www.w3.org/2000/svg">
<path d="M24.112 12.032V80H2.8V12.032H24.112ZM71.6575 25.472C77.8655 25.472 82.6975 27.552 86.1535 31.712C89.6735 35.872 91.4335 41.504 91.4335 48.608V80H70.2175V51.296C70.2175 48.736 69.5135 46.72 68.1055 45.248C66.7615 43.712 64.9375 42.944 62.6335 42.944C60.2655 42.944 58.4095 43.712 57.0655 45.248C55.7215 46.72 55.0495 48.736 55.0495 51.296V80H33.7375V25.856H55.0495V34.112C56.7135 31.552 58.9215 29.472 61.6735 27.872C64.4895 26.272 67.8175 25.472 71.6575 25.472ZM131.875 22.016C130.723 21.888 129.923 21.824 129.475 21.824C127.875 21.824 126.659 22.144 125.827 22.784C124.995 23.36 124.419 24.384 124.099 25.856H131.875V43.616H123.907V80H102.595V43.616H96.835V25.856H102.595C102.723 18.816 104.931 13.376 109.219 9.536C113.571 5.632 119.651 3.68 127.459 3.68C128.355 3.68 129.827 3.744 131.875 3.872V22.016ZM190.029 52.448C190.029 53.92 189.933 55.328 189.741 56.672H155.469C155.789 61.344 157.741 63.68 161.325 63.68C163.629 63.68 165.293 62.624 166.317 60.512H188.877C188.109 64.352 186.477 67.808 183.981 70.88C181.549 73.888 178.445 76.288 174.669 78.08C170.957 79.808 166.861 80.672 162.381 80.672C157.005 80.672 152.205 79.552 147.981 77.312C143.821 75.072 140.557 71.872 138.189 67.712C135.885 63.488 134.733 58.56 134.733 52.928C134.733 47.296 135.885 42.4 138.189 38.24C140.557 34.016 143.821 30.784 147.981 28.544C152.205 26.304 157.005 25.184 162.381 25.184C167.757 25.184 172.525 26.304 176.685 28.544C180.909 30.72 184.173 33.856 186.477 37.952C188.845 42.048 190.029 46.88 190.029 52.448ZM168.429 47.36C168.429 45.568 167.853 44.224 166.701 43.328C165.549 42.368 164.109 41.888 162.381 41.888C158.605 41.888 156.397 43.712 155.757 47.36H168.429ZM193.889 52.928C193.889 47.296 195.041 42.4 197.345 38.24C199.713 34.016 202.977 30.784 207.137 28.544C211.361 26.304 216.161 25.184 221.537 25.184C228.577 25.184 234.497 27.168 239.297 31.136C244.161 35.104 247.233 40.608 248.513 47.648H225.953C225.121 44.832 223.489 43.424 221.057 43.424C219.329 43.424 217.953 44.224 216.929 45.824C215.969 47.424 215.489 49.792 215.489 52.928C215.489 56.064 215.969 58.432 216.929 60.032C217.953 61.632 219.329 62.432 221.057 62.432C223.489 62.432 225.121 61.024 225.953 58.208H248.513C247.233 65.248 244.161 70.752 239.297 74.72C234.497 78.688 228.577 80.672 221.537 80.672C216.161 80.672 211.361 79.552 207.137 77.312C202.977 75.072 199.713 71.872 197.345 67.712C195.041 63.488 193.889 58.56 193.889 52.928ZM288.965 61.856V80H280.901C266.053 80 258.629 72.608 258.629 57.824V43.616H251.909V25.856H258.629V12.8H279.941V25.856H288.773V43.616H279.941V58.208C279.941 59.488 280.229 60.416 280.805 60.992C281.445 61.568 282.469 61.856 283.877 61.856H288.965ZM307.833 21.536C304.121 21.536 301.145 20.544 298.905 18.56C296.665 16.576 295.545 14.08 295.545 11.072C295.545 8 296.665 5.472 298.905 3.488C301.145 1.43999 304.121 0.415995 307.833 0.415995C311.481 0.415995 314.425 1.43999 316.665 3.488C318.905 5.472 320.025 8 320.025 11.072C320.025 14.08 318.905 16.576 316.665 18.56C314.425 20.544 311.481 21.536 307.833 21.536ZM318.393 25.856V80H297.081V25.856H318.393ZM353.747 80.672C348.307 80.672 343.411 79.552 339.059 77.312C334.707 75.072 331.283 71.872 328.787 67.712C326.355 63.488 325.139 58.56 325.139 52.928C325.139 47.296 326.355 42.4 328.787 38.24C331.283 34.016 334.707 30.784 339.059 28.544C343.411 26.304 348.307 25.184 353.747 25.184C359.187 25.184 364.083 26.304 368.435 28.544C372.787 30.784 376.179 34.016 378.611 38.24C381.107 42.4 382.355 47.296 382.355 52.928C382.355 58.56 381.107 63.488 378.611 67.712C376.179 71.872 372.787 75.072 368.435 77.312C364.083 79.552 359.187 80.672 353.747 80.672ZM353.747 62.24C355.731 62.24 357.395 61.472 358.739 59.936C360.083 58.336 360.755 56 360.755 52.928C360.755 49.856 360.083 47.552 358.739 46.016C357.395 44.416 355.731 43.616 353.747 43.616C351.763 43.616 350.099 44.416 348.755 46.016C347.411 47.552 346.739 49.856 346.739 52.928C346.739 56 347.379 58.336 348.659 59.936C350.003 61.472 351.699 62.24 353.747 62.24ZM446.362 25.856V80H425.05V71.744C423.386 74.304 421.146 76.384 418.33 77.984C415.578 79.584 412.282 80.384 408.442 80.384C402.234 80.384 397.37 78.304 393.85 74.144C390.394 69.984 388.666 64.352 388.666 57.248V25.856H409.882V54.56C409.882 57.12 410.554 59.168 411.898 60.704C413.306 62.176 415.162 62.912 417.466 62.912C419.834 62.912 421.69 62.176 423.034 60.704C424.378 59.168 425.05 57.12 425.05 54.56V25.856H446.362ZM480.084 80.672C474.964 80.672 470.42 79.84 466.452 78.176C462.548 76.512 459.444 74.208 457.14 71.264C454.836 68.32 453.524 64.992 453.204 61.28H473.652C473.908 62.88 474.58 64.064 475.668 64.832C476.82 65.6 478.26 65.984 479.988 65.984C481.076 65.984 481.94 65.76 482.58 65.312C483.22 64.8 483.54 64.192 483.54 63.488C483.54 62.272 482.868 61.408 481.524 60.896C480.18 60.384 477.908 59.808 474.708 59.168C470.804 58.4 467.572 57.568 465.012 56.672C462.516 55.776 460.308 54.24 458.388 52.064C456.532 49.888 455.604 46.88 455.604 43.04C455.604 39.712 456.468 36.704 458.196 34.016C459.988 31.264 462.612 29.12 466.068 27.584C469.524 25.984 473.716 25.184 478.644 25.184C485.94 25.184 491.636 26.976 495.732 30.56C499.892 34.144 502.388 38.816 503.22 44.576H484.308C483.988 43.104 483.316 41.984 482.292 41.216C481.268 40.384 479.892 39.968 478.164 39.968C477.076 39.968 476.244 40.192 475.668 40.64C475.092 41.024 474.804 41.632 474.804 42.464C474.804 43.552 475.476 44.384 476.82 44.96C478.164 45.472 480.308 46.016 483.252 46.592C487.156 47.36 490.452 48.224 493.14 49.184C495.828 50.144 498.164 51.808 500.148 54.176C502.132 56.48 503.124 59.68 503.124 63.776C503.124 66.976 502.196 69.856 500.34 72.416C498.484 74.976 495.796 76.992 492.276 78.464C488.82 79.936 484.756 80.672 480.084 80.672ZM31.12 156.032C38.224 156.032 44.432 157.472 49.744 160.352C55.12 163.232 59.248 167.232 62.128 172.352C65.008 177.472 66.448 183.296 66.448 189.824C66.448 196.288 65.008 202.112 62.128 207.296C59.248 212.48 55.12 216.576 49.744 219.584C44.432 222.528 38.224 224 31.12 224H2.8V156.032H31.12ZM29.2 204.992C34 204.992 37.808 203.68 40.624 201.056C43.44 198.432 44.848 194.688 44.848 189.824C44.848 184.96 43.44 181.216 40.624 178.592C37.808 175.968 34 174.656 29.2 174.656H24.112V204.992H29.2ZM84.8958 165.536C81.1838 165.536 78.2078 164.544 75.9678 162.56C73.7278 160.576 72.6078 158.08 72.6078 155.072C72.6078 152 73.7278 149.472 75.9678 147.488C78.2078 145.44 81.1838 144.416 84.8958 144.416C88.5438 144.416 91.4878 145.44 93.7278 147.488C95.9678 149.472 97.0878 152 97.0878 155.072C97.0878 158.08 95.9678 160.576 93.7278 162.56C91.4878 164.544 88.5438 165.536 84.8958 165.536ZM95.4558 169.856V224H74.1438V169.856H95.4558ZM129.177 224.672C124.057 224.672 119.513 223.84 115.545 222.176C111.641 220.512 108.537 218.208 106.233 215.264C103.929 212.32 102.617 208.992 102.297 205.28H122.745C123.001 206.88 123.673 208.064 124.761 208.832C125.913 209.6 127.353 209.984 129.081 209.984C130.169 209.984 131.033 209.76 131.673 209.312C132.313 208.8 132.633 208.192 132.633 207.488C132.633 206.272 131.961 205.408 130.617 204.896C129.273 204.384 127.001 203.808 123.801 203.168C119.897 202.4 116.665 201.568 114.105 200.672C111.609 199.776 109.401 198.24 107.481 196.064C105.625 193.888 104.697 190.88 104.697 187.04C104.697 183.712 105.561 180.704 107.289 178.016C109.081 175.264 111.705 173.12 115.161 171.584C118.617 169.984 122.809 169.184 127.737 169.184C135.033 169.184 140.729 170.976 144.825 174.56C148.985 178.144 151.481 182.816 152.313 188.576H133.401C133.081 187.104 132.409 185.984 131.385 185.216C130.361 184.384 128.985 183.968 127.257 183.968C126.169 183.968 125.337 184.192 124.761 184.64C124.185 185.024 123.897 185.632 123.897 186.464C123.897 187.552 124.569 188.384 125.913 188.96C127.257 189.472 129.401 190.016 132.345 190.592C136.249 191.36 139.545 192.224 142.233 193.184C144.921 194.144 147.257 195.808 149.241 198.176C151.225 200.48 152.217 203.68 152.217 207.776C152.217 210.976 151.289 213.856 149.433 216.416C147.577 218.976 144.889 220.992 141.369 222.464C137.913 223.936 133.849 224.672 129.177 224.672ZM213.091 196.448C213.091 197.92 212.995 199.328 212.803 200.672H178.531C178.851 205.344 180.803 207.68 184.387 207.68C186.691 207.68 188.355 206.624 189.379 204.512H211.939C211.171 208.352 209.539 211.808 207.043 214.88C204.611 217.888 201.507 220.288 197.731 222.08C194.019 223.808 189.923 224.672 185.443 224.672C180.067 224.672 175.267 223.552 171.043 221.312C166.883 219.072 163.619 215.872 161.251 211.712C158.947 207.488 157.795 202.56 157.795 196.928C157.795 191.296 158.947 186.4 161.251 182.24C163.619 178.016 166.883 174.784 171.043 172.544C175.267 170.304 180.067 169.184 185.443 169.184C190.819 169.184 195.587 170.304 199.747 172.544C203.971 174.72 207.235 177.856 209.539 181.952C211.907 186.048 213.091 190.88 213.091 196.448ZM191.491 191.36C191.491 189.568 190.915 188.224 189.763 187.328C188.611 186.368 187.171 185.888 185.443 185.888C181.667 185.888 179.459 187.712 178.819 191.36H191.491ZM216.951 196.928C216.951 191.232 217.911 186.304 219.831 182.144C221.815 177.92 224.503 174.72 227.895 172.544C231.287 170.304 235.095 169.184 239.319 169.184C242.839 169.184 245.879 169.92 248.439 171.392C250.999 172.8 252.951 174.752 254.295 177.248V169.856H275.511V224H254.295V216.608C252.951 219.104 250.999 221.088 248.439 222.56C245.879 223.968 242.839 224.672 239.319 224.672C235.095 224.672 231.287 223.584 227.895 221.408C224.503 219.168 221.815 215.968 219.831 211.808C217.911 207.584 216.951 202.624 216.951 196.928ZM254.295 196.928C254.295 194.048 253.559 191.808 252.087 190.208C250.615 188.608 248.727 187.808 246.423 187.808C244.119 187.808 242.231 188.608 240.759 190.208C239.287 191.808 238.551 194.048 238.551 196.928C238.551 199.808 239.287 202.048 240.759 203.648C242.231 205.248 244.119 206.048 246.423 206.048C248.727 206.048 250.615 205.248 252.087 203.648C253.559 202.048 254.295 199.808 254.295 196.928ZM309.177 224.672C304.057 224.672 299.513 223.84 295.545 222.176C291.641 220.512 288.537 218.208 286.233 215.264C283.929 212.32 282.617 208.992 282.297 205.28H302.745C303.001 206.88 303.673 208.064 304.761 208.832C305.913 209.6 307.353 209.984 309.081 209.984C310.169 209.984 311.033 209.76 311.673 209.312C312.313 208.8 312.633 208.192 312.633 207.488C312.633 206.272 311.961 205.408 310.617 204.896C309.273 204.384 307.001 203.808 303.801 203.168C299.897 202.4 296.665 201.568 294.105 200.672C291.609 199.776 289.401 198.24 287.481 196.064C285.625 193.888 284.697 190.88 284.697 187.04C284.697 183.712 285.561 180.704 287.289 178.016C289.081 175.264 291.705 173.12 295.161 171.584C298.617 169.984 302.809 169.184 307.737 169.184C315.033 169.184 320.729 170.976 324.825 174.56C328.985 178.144 331.481 182.816 332.313 188.576H313.401C313.081 187.104 312.409 185.984 311.385 185.216C310.361 184.384 308.985 183.968 307.257 183.968C306.169 183.968 305.337 184.192 304.761 184.64C304.185 185.024 303.897 185.632 303.897 186.464C303.897 187.552 304.569 188.384 305.913 188.96C307.257 189.472 309.401 190.016 312.345 190.592C316.249 191.36 319.545 192.224 322.233 193.184C324.921 194.144 327.257 195.808 329.241 198.176C331.225 200.48 332.217 203.68 332.217 207.776C332.217 210.976 331.289 213.856 329.433 216.416C327.577 218.976 324.889 220.992 321.369 222.464C317.913 223.936 313.849 224.672 309.177 224.672ZM393.091 196.448C393.091 197.92 392.995 199.328 392.803 200.672H358.531C358.851 205.344 360.803 207.68 364.387 207.68C366.691 207.68 368.355 206.624 369.379 204.512H391.939C391.171 208.352 389.539 211.808 387.043 214.88C384.611 217.888 381.507 220.288 377.731 222.08C374.019 223.808 369.923 224.672 365.443 224.672C360.067 224.672 355.267 223.552 351.043 221.312C346.883 219.072 343.619 215.872 341.251 211.712C338.947 207.488 337.795 202.56 337.795 196.928C337.795 191.296 338.947 186.4 341.251 182.24C343.619 178.016 346.883 174.784 351.043 172.544C355.267 170.304 360.067 169.184 365.443 169.184C370.819 169.184 375.587 170.304 379.747 172.544C383.971 174.72 387.235 177.856 389.539 181.952C391.907 186.048 393.091 190.88 393.091 196.448ZM371.491 191.36C371.491 189.568 370.915 188.224 369.763 187.328C368.611 186.368 367.171 185.888 365.443 185.888C361.667 185.888 359.459 187.712 358.819 191.36H371.491ZM423.927 224.672C418.807 224.672 414.263 223.84 410.295 222.176C406.391 220.512 403.287 218.208 400.983 215.264C398.679 212.32 397.367 208.992 397.047 205.28H417.495C417.751 206.88 418.423 208.064 419.511 208.832C420.663 209.6 422.103 209.984 423.831 209.984C424.919 209.984 425.783 209.76 426.423 209.312C427.063 208.8 427.383 208.192 427.383 207.488C427.383 206.272 426.711 205.408 425.367 204.896C424.023 204.384 421.751 203.808 418.551 203.168C414.647 202.4 411.415 201.568 408.855 200.672C406.359 199.776 404.151 198.24 402.231 196.064C400.375 193.888 399.447 190.88 399.447 187.04C399.447 183.712 400.311 180.704 402.039 178.016C403.831 175.264 406.455 173.12 409.911 171.584C413.367 169.984 417.559 169.184 422.487 169.184C429.783 169.184 435.479 170.976 439.575 174.56C443.735 178.144 446.231 182.816 447.063 188.576H428.151C427.831 187.104 427.159 185.984 426.135 185.216C425.111 184.384 423.735 183.968 422.007 183.968C420.919 183.968 420.087 184.192 419.511 184.64C418.935 185.024 418.647 185.632 418.647 186.464C418.647 187.552 419.319 188.384 420.663 188.96C422.007 189.472 424.151 190.016 427.095 190.592C430.999 191.36 434.295 192.224 436.983 193.184C439.671 194.144 442.007 195.808 443.991 198.176C445.975 200.48 446.967 203.68 446.967 207.776C446.967 210.976 446.039 213.856 444.183 216.416C442.327 218.976 439.639 220.992 436.119 222.464C432.663 223.936 428.599 224.672 423.927 224.672ZM100.72 300.032L85.168 368H58.672L50.8 329.408L42.928 368H16.432L0.88 300.032H23.824L29.968 342.848L39.184 300.032H62.416L71.632 342.848L77.776 300.032H100.72ZM134.091 368.672C128.651 368.672 123.755 367.552 119.403 365.312C115.051 363.072 111.627 359.872 109.131 355.712C106.699 351.488 105.483 346.56 105.483 340.928C105.483 335.296 106.699 330.4 109.131 326.24C111.627 322.016 115.051 318.784 119.403 316.544C123.755 314.304 128.651 313.184 134.091 313.184C139.531 313.184 144.427 314.304 148.779 316.544C153.131 318.784 156.523 322.016 158.955 326.24C161.451 330.4 162.699 335.296 162.699 340.928C162.699 346.56 161.451 351.488 158.955 355.712C156.523 359.872 153.131 363.072 148.779 365.312C144.427 367.552 139.531 368.672 134.091 368.672ZM134.091 350.24C136.075 350.24 137.739 349.472 139.083 347.936C140.427 346.336 141.099 344 141.099 340.928C141.099 337.856 140.427 335.552 139.083 334.016C137.739 332.416 136.075 331.616 134.091 331.616C132.107 331.616 130.443 332.416 129.099 334.016C127.755 335.552 127.083 337.856 127.083 340.928C127.083 344 127.723 346.336 129.003 347.936C130.347 349.472 132.043 350.24 134.091 350.24ZM226.706 313.856V368H205.394V359.744C203.73 362.304 201.49 364.384 198.674 365.984C195.922 367.584 192.626 368.384 188.786 368.384C182.578 368.384 177.714 366.304 174.194 362.144C170.738 357.984 169.01 352.352 169.01 345.248V313.856H190.226V342.56C190.226 345.12 190.898 347.168 192.242 348.704C193.65 350.176 195.506 350.912 197.81 350.912C200.178 350.912 202.034 350.176 203.378 348.704C204.722 347.168 205.394 345.12 205.394 342.56V313.856H226.706ZM257.643 296.96V368H236.331V296.96H257.643ZM264.389 340.928C264.389 335.232 265.349 330.304 267.269 326.144C269.253 321.92 271.941 318.72 275.333 316.544C278.725 314.304 282.533 313.184 286.757 313.184C290.277 313.184 293.285 313.92 295.781 315.392C298.341 316.8 300.293 318.752 301.637 321.248V296.96H322.949V368H301.637V360.608C300.293 363.104 298.341 365.088 295.781 366.56C293.285 367.968 290.277 368.672 286.757 368.672C282.533 368.672 278.725 367.584 275.333 365.408C271.941 363.168 269.253 359.968 267.269 355.808C265.349 351.584 264.389 346.624 264.389 340.928ZM301.733 340.928C301.733 338.048 300.997 335.808 299.525 334.208C298.053 332.608 296.165 331.808 293.861 331.808C291.557 331.808 289.669 332.608 288.197 334.208C286.725 335.808 285.989 338.048 285.989 340.928C285.989 343.808 286.725 346.048 288.197 347.648C289.669 349.248 291.557 350.048 293.861 350.048C296.165 350.048 298.053 349.248 299.525 347.648C300.997 346.048 301.733 343.808 301.733 340.928ZM370.439 313.472C376.647 313.472 381.479 315.552 384.935 319.712C388.455 323.872 390.215 329.504 390.215 336.608V368H368.999V339.296C368.999 336.736 368.295 334.72 366.887 333.248C365.543 331.712 363.719 330.944 361.415 330.944C359.047 330.944 357.191 331.712 355.847 333.248C354.503 334.72 353.831 336.736 353.831 339.296V368H332.519V313.856H353.831V322.112C355.495 319.552 357.703 317.472 360.455 315.872C363.271 314.272 366.599 313.472 370.439 313.472ZM415.776 290.912L414.528 313.472H400.32L398.976 290.912H415.776ZM458.559 349.856V368H450.495C435.647 368 428.223 360.608 428.223 345.824V331.616H421.503V313.856H428.223V300.8H449.535V313.856H458.367V331.616H449.535V346.208C449.535 347.488 449.823 348.416 450.399 348.992C451.039 349.568 452.063 349.856 453.471 349.856H458.559ZM43.888 512L24.112 482.528V512H2.8V444.032H24.112V472.64L43.6 444.032H67.696L44.272 476.576L69.232 512H43.888ZM86.0208 453.536C82.3088 453.536 79.3328 452.544 77.0928 450.56C74.8528 448.576 73.7328 446.08 73.7328 443.072C73.7328 440 74.8528 437.472 77.0928 435.488C79.3328 433.44 82.3088 432.416 86.0208 432.416C89.6688 432.416 92.6128 433.44 94.8528 435.488C97.0928 437.472 98.2128 440 98.2128 443.072C98.2128 446.08 97.0928 448.576 94.8528 450.56C92.6128 452.544 89.6688 453.536 86.0208 453.536ZM96.5808 457.856V512H75.2688V457.856H96.5808ZM127.518 440.96V512H106.206V440.96H127.518ZM158.456 440.96V512H137.144V440.96H158.456ZM227.978 501.728H205.322L201.962 512H179.594L204.458 444.032H229.034L253.802 512H231.338L227.978 501.728ZM222.794 485.696L216.65 466.784L210.506 485.696H222.794ZM296.564 457.472C302.772 457.472 307.604 459.552 311.06 463.712C314.58 467.872 316.34 473.504 316.34 480.608V512H295.124V483.296C295.124 480.736 294.42 478.72 293.012 477.248C291.668 475.712 289.844 474.944 287.54 474.944C285.172 474.944 283.316 475.712 281.972 477.248C280.628 478.72 279.956 480.736 279.956 483.296V512H258.644V457.856H279.956V466.112C281.62 463.552 283.828 461.472 286.58 459.872C289.396 458.272 292.724 457.472 296.564 457.472ZM386.733 457.856L352.077 537.92H328.749L342.381 509.312L319.821 457.856H343.533L353.709 485.312L363.213 457.856H386.733ZM462.838 457.472C469.75 457.472 475.094 459.552 478.87 463.712C482.71 467.872 484.63 473.504 484.63 480.608V512H463.414V483.296C463.414 480.992 462.71 479.2 461.302 477.92C459.958 476.576 458.134 475.904 455.83 475.904C453.462 475.904 451.606 476.576 450.262 477.92C448.918 479.2 448.246 480.992 448.246 483.296V512H427.03V483.296C427.03 480.992 426.326 479.2 424.918 477.92C423.574 476.576 421.75 475.904 419.446 475.904C417.078 475.904 415.222 476.576 413.878 477.92C412.534 479.2 411.862 480.992 411.862 483.296V512H390.55V457.856H411.862V465.152C413.398 462.848 415.478 460.992 418.102 459.584C420.79 458.176 423.926 457.472 427.51 457.472C431.414 457.472 434.87 458.336 437.878 460.064C440.886 461.728 443.286 464.096 445.078 467.168C447.062 464.352 449.59 462.048 452.662 460.256C455.734 458.4 459.126 457.472 462.838 457.472ZM519.591 512.672C514.151 512.672 509.255 511.552 504.903 509.312C500.551 507.072 497.127 503.872 494.631 499.712C492.199 495.488 490.983 490.56 490.983 484.928C490.983 479.296 492.199 474.4 494.631 470.24C497.127 466.016 500.551 462.784 504.903 460.544C509.255 458.304 514.151 457.184 519.591 457.184C525.031 457.184 529.927 458.304 534.279 460.544C538.631 462.784 542.023 466.016 544.455 470.24C546.951 474.4 548.199 479.296 548.199 484.928C548.199 490.56 546.951 495.488 544.455 499.712C542.023 503.872 538.631 507.072 534.279 509.312C529.927 511.552 525.031 512.672 519.591 512.672ZM519.591 494.24C521.575 494.24 523.239 493.472 524.583 491.936C525.927 490.336 526.599 488 526.599 484.928C526.599 481.856 525.927 479.552 524.583 478.016C523.239 476.416 521.575 475.616 519.591 475.616C517.607 475.616 515.943 476.416 514.599 478.016C513.255 479.552 512.583 481.856 512.583 484.928C512.583 488 513.223 490.336 514.503 491.936C515.847 493.472 517.543 494.24 519.591 494.24ZM576.206 467.84C578.382 464.704 581.038 462.208 584.174 460.352C587.31 458.432 590.574 457.472 593.966 457.472V480.224H587.918C583.886 480.224 580.91 480.928 578.99 482.336C577.134 483.744 576.206 486.24 576.206 489.824V512H554.894V457.856H576.206V467.84ZM652.122 484.448C652.122 485.92 652.026 487.328 651.834 488.672H617.562C617.882 493.344 619.834 495.68 623.418 495.68C625.722 495.68 627.386 494.624 628.41 492.512H650.97C650.202 496.352 648.57 499.808 646.074 502.88C643.642 505.888 640.538 508.288 636.762 510.08C633.05 511.808 628.954 512.672 624.474 512.672C619.098 512.672 614.298 511.552 610.074 509.312C605.914 507.072 602.65 503.872 600.282 499.712C597.978 495.488 596.826 490.56 596.826 484.928C596.826 479.296 597.978 474.4 600.282 470.24C602.65 466.016 605.914 462.784 610.074 460.544C614.298 458.304 619.098 457.184 624.474 457.184C629.85 457.184 634.618 458.304 638.778 460.544C643.002 462.72 646.266 465.856 648.57 469.952C650.938 474.048 652.122 478.88 652.122 484.448ZM630.522 479.36C630.522 477.568 629.946 476.224 628.794 475.328C627.642 474.368 626.202 473.888 624.474 473.888C620.698 473.888 618.49 475.712 617.85 479.36H630.522Z" fill="black"/>
</svg>
